<svg xmlns="http://www.w3.org/2000/svg" viewBox="0 0 135.39 114.21"><defs><style>.cls-1{fill:#f9ec7a;}.cls-2{fill:#2b3590;}</style></defs><title>symbol-18</title><g id="Layer_2" data-name="Layer 2"><g id="OBJECTS"><path class="cls-1" d="M76.86,14.92a61.87,61.87,0,0,0-27.6,6.36C37.88,26.9,28.84,35,23.11,46.49a41.29,41.29,0,0,0-4.33,15.9,33.5,33.5,0,0,0,6.41,22,37.5,37.5,0,0,0,18,13.27,51.7,51.7,0,0,0,11.14,2.74A55.63,55.63,0,0,0,71.94,100,60.87,60.87,0,0,0,92,92.54,58.68,58.68,0,0,0,106.1,81.26c6.1-6.78,10.34-14.51,11.77-23.65a34.16,34.16,0,0,0-4.11-22.76,35.61,35.61,0,0,0-10.23-11.21A5.22,5.22,0,0,1,102,22.3a5.38,5.38,0,0,0-2.61-2.07A50.75,50.75,0,0,0,76.86,14.92Z"/><path class="cls-2" d="M59,105a60.69,60.69,0,0,1-21.72-4.44,44.88,44.88,0,0,1-12.47-7.68A39.55,39.55,0,0,1,11.61,70.71,40.08,40.08,0,0,1,12,52.55c2.68-11.08,8.67-20.13,17.14-27.61A65.49,65.49,0,0,1,68.63,8.44,53.78,53.78,0,0,1,97.39,14,17.22,17.22,0,0,0,102.2,16a7.53,7.53,0,0,1,2.71,1.65C113.48,24,119,32.3,121,42.81a41.88,41.88,0,0,1-1.66,21.4,54.54,54.54,0,0,1-12.6,20.38A62.38,62.38,0,0,1,91.17,96.44,65.14,65.14,0,0,1,68.39,104C65.28,104.43,62.14,104.65,59,105ZM74.38,12.61A62,62,0,0,0,46.77,19c-11.38,5.62-20.41,13.7-26.14,25.21a40.94,40.94,0,0,0-4.33,15.9,33.5,33.5,0,0,0,6.41,22A37.43,37.43,0,0,0,40.65,95.39,51.78,51.78,0,0,0,51.8,98.13a55.64,55.64,0,0,0,17.66-.48,61,61,0,0,0,20.07-7.42A58.63,58.63,0,0,0,103.61,79c6.11-6.78,10.34-14.51,11.78-23.65a34.23,34.23,0,0,0-4.12-22.76,35.7,35.7,0,0,0-10.22-11.21A5.14,5.14,0,0,1,99.49,20a5.34,5.34,0,0,0-2.61-2.07A50.7,50.7,0,0,0,74.38,12.61Z"/><path class="cls-2" d="M14.61,34.42a2.91,2.91,0,1,1-5.82-.05,3,3,0,0,1,3-2.81A2.89,2.89,0,0,1,14.61,34.42Z"/><path class="cls-2" d="M25,101A2.93,2.93,0,0,1,27.85,104,2.81,2.81,0,0,1,25,106.71a2.67,2.67,0,0,1-2.8-2.84A2.73,2.73,0,0,1,25,101Z"/><path class="cls-2" d="M40.54,10.75a2.21,2.21,0,0,1-2.4-2.32A3.45,3.45,0,0,1,41.3,5.28a2.6,2.6,0,0,1,2.81,2.63C44.12,9.53,42.63,10.71,40.54,10.75Z"/><path class="cls-2" d="M135.39,48.93a2.55,2.55,0,0,1-2.63,2.57,2.59,2.59,0,0,1-2.69-2.72,2.84,2.84,0,0,1,2.87-2.61A2.57,2.57,0,0,1,135.39,48.93Z"/><path class="cls-2" d="M2.58,51.08a2.54,2.54,0,0,1,2.57,2.45,2.81,2.81,0,0,1-2.57,2.89A2.77,2.77,0,0,1,0,53.71,2.61,2.61,0,0,1,2.58,51.08Z"/><path class="cls-2" d="M128.51,71.52a2.52,2.52,0,0,1-2.4,2.59,2.59,2.59,0,0,1,0-5.18A2.42,2.42,0,0,1,128.51,71.52Z"/><path class="cls-2" d="M85.35.78A2.13,2.13,0,0,1,87.69,3.1a2.47,2.47,0,0,1-2.46,2.72A2.37,2.37,0,0,1,82.7,3.38,2.67,2.67,0,0,1,85.35.78Z"/><path class="cls-2" d="M48.06,108.93a2.52,2.52,0,0,1,2.44,2.58,2.36,2.36,0,0,1-2.27,2.67,2.89,2.89,0,0,1-2.63-2.71A2.42,2.42,0,0,1,48.06,108.93Z"/><path class="cls-2" d="M128.53,30.06a2.66,2.66,0,0,1,2.86,2.41,2.44,2.44,0,0,1-2.54,2.45,2.84,2.84,0,0,1-2.67-2.45A2.32,2.32,0,0,1,128.53,30.06Z"/><path class="cls-2" d="M22,18a2.19,2.19,0,0,1,2.19,2.12A2.92,2.92,0,0,1,21.47,23a2.21,2.21,0,0,1-2.08-2A2.89,2.89,0,0,1,22,18Z"/><path class="cls-2" d="M75.25,109.64A2.29,2.29,0,1,1,72.89,112,2.34,2.34,0,0,1,75.25,109.64Z"/><path class="cls-2" d="M119.46,23.17a2.31,2.31,0,0,1-2.29-2.25,2.37,2.37,0,0,1,2.56-2.38,2.17,2.17,0,0,1,2,2.24A2.22,2.22,0,0,1,119.46,23.17Z"/><path class="cls-2" d="M4.9,77.46A2.22,2.22,0,1,1,4.82,73a2.33,2.33,0,0,1,2.35,2.2A2.23,2.23,0,0,1,4.9,77.46Z"/><path class="cls-2" d="M102.82,102.56a2.28,2.28,0,0,1-4.55,0,2.58,2.58,0,0,1,2.52-2.31A2.26,2.26,0,0,1,102.82,102.56Z"/><path class="cls-2" d="M12.59,92.85a2.12,2.12,0,0,1-2.13-2.32,2.22,2.22,0,0,1,2.35-2.14A2.19,2.19,0,0,1,15,90.7,2.35,2.35,0,0,1,12.59,92.85Z"/><path class="cls-2" d="M118.63,88a2.12,2.12,0,0,1-2.13,2.17,2.15,2.15,0,1,1,0-4.3A2.11,2.11,0,0,1,118.63,88Z"/><path class="cls-2" d="M106.26,9.85a2.07,2.07,0,0,1-2.21,2.05,2.16,2.16,0,0,1-2-2.29,2.1,2.1,0,0,1,2.25-2A2,2,0,0,1,106.26,9.85Z"/><path class="cls-2" d="M62.55,4.2a2,2,0,0,1-2.18-2.05A2.22,2.22,0,0,1,62.54,0a2,2,0,0,1,2.14,2.06A2.12,2.12,0,0,1,62.55,4.2Z"/><path class="cls-2" d="M59.7,58.42c.51,3.64,2.15,6.7,5.75,8.49a3.7,3.7,0,0,0,3.6-.22,13.39,13.39,0,0,0,4.25-3.95,62,62,0,0,0,3.44-5.18,3.78,3.78,0,0,1,2.4-2,3.11,3.11,0,0,1,3.72,3.21,4.24,4.24,0,0,1-.34,1.65C80.69,64.25,78.9,68.09,76,71.2a12.75,12.75,0,0,1-9,4.24A10.32,10.32,0,0,1,61.41,74a17.74,17.74,0,0,1-8.78-12.58,36.08,36.08,0,0,1,2.74-23.19,17,17,0,0,1,7-7.87c4.42-2.41,9.37-.39,11.24,4.63,1.24,3.33.76,6.59-.32,9.79A22,22,0,0,1,64.53,56,43.48,43.48,0,0,1,59.7,58.42Zm-.25-7.49A1.38,1.38,0,0,0,60,50.8c3.14-2.42,5.67-5.34,6.75-9.23.45-1.61,1-3.42-.5-4.91C62.61,37.61,59.43,45.81,59.45,50.93Z"/><path class="cls-2" d="M103.08,59.23c0,4-2.69,8.46-6,9.73a6.83,6.83,0,0,1-6.47-.69,8,8,0,0,1-3.55-4.94A3,3,0,0,1,88.27,60a2.76,2.76,0,0,1,3.35.16,16.35,16.35,0,0,1,1.79,1.65c.92.94,1.8.94,2.35-.29a5.83,5.83,0,0,0,.43-2.89,6.58,6.58,0,0,0-2.33-4.41c-2.56-2.12-5.19-4.17-7.77-6.28a71.31,71.31,0,0,1-5.45-4.64,11.18,11.18,0,0,1,1.57-17.13,7,7,0,0,1,6.84-.76c4.23,1.7,6.82,5,8.55,9.08a11.41,11.41,0,0,1,1,5.52,8.73,8.73,0,0,1-.77,2.87,2.39,2.39,0,0,1-2.66,1.37A2.31,2.31,0,0,1,93,42.4c-.3-1.34-.47-2.72-.75-4.07A10.25,10.25,0,0,0,88,31.89c-1.31-.95-2.06-.73-2.94.64a4,4,0,0,0,.32,5A22.5,22.5,0,0,0,88,40c3.1,2.56,6.23,5.08,9.32,7.66a14.84,14.84,0,0,1,5.64,9.9c0,.25.09.5.11.75S103.08,58.92,103.08,59.23Z"/><path class="cls-2" d="M40.75,53.22c0-1,.09-1.51.11-2,.19-4.4.36-8.8.57-13.19a2.8,2.8,0,0,1,2.86-2.66,2.73,2.73,0,0,1,2.55,3,137.45,137.45,0,0,0,.41,16.36q.91,12.22,1.81,24.46a8.79,8.79,0,0,1,0,1.7c-.21,1.67-1,2.55-2.36,2.78a2.89,2.89,0,0,1-3.24-1.73,5.72,5.72,0,0,1-.5-2q-.81-8.66-1.55-17.3a1.74,1.74,0,0,0-.89-1.51c-4.55-2.89-8.28-6.74-12.14-10.44A3.53,3.53,0,0,1,27,47.29a2.78,2.78,0,0,1,4.49-1.82c1.83,1.32,3.57,2.78,5.31,4.22C38,50.73,39.22,51.85,40.75,53.22Z"/><path class="cls-2" d="M90.07,74.48c0,1.27-.8,2.26-2.32,2.87-3.55,1.44-7.11,2.87-10.65,4.33a110,110,0,0,0-18.59,9.57,2.73,2.73,0,0,1-3.74-3.87,11.8,11.8,0,0,1,3-2.59c3.36-2,6.76-3.86,10.23-5.61s7-3.39,10.63-4.88A76.81,76.81,0,0,1,86,72a4.7,4.7,0,0,1,1.87-.07A2.48,2.48,0,0,1,90.07,74.48Z"/><path class="cls-2" d="M56.43,24.78c-.83,2-2.57,2.36-4.5,2a1.78,1.78,0,0,0-2.12,1c-1,1.67-1.62,1.87-3.4,1.16a10.35,10.35,0,0,1-2.13-1.19c-.87-.61-1-1.28-.56-1.9s1.17-.6,1.84-.21l1.53.86c.25-.08.43-.09.47-.17a4,4,0,0,1,4.9-2.15,1.48,1.48,0,0,0,1.8-.94c.76-1.39,1.4-1.59,3-1.29.43.08.86.2,1.28.31a2,2,0,0,0,2.55-.95,2.85,2.85,0,0,1,3.09-1.33c.81.1,1.61.23,2.48.36a3,3,0,0,0,.47-.54C68,18,69.54,17.48,71.5,18a2.94,2.94,0,0,0,3.12-.69,2.22,2.22,0,0,1,2.46-.44,8.59,8.59,0,0,0,6.25.24,1.31,1.31,0,0,1,1.21.5,1.8,1.8,0,0,1-.23,1.52,2.61,2.61,0,0,1-1.5.65,14.79,14.79,0,0,1-3.18.21,18,18,0,0,1-2.82-.61,18.26,18.26,0,0,1-3.47,1.33A15.56,15.56,0,0,1,70,20.48c-.87.88-1.21,2.42-2.65,2.51a22.11,22.11,0,0,1-3.4-.26c-1.25.91-2.19,2-3.35,2.3S58,24.91,56.43,24.78Z"/><path class="cls-2" d="M107.25,47.45a1.83,1.83,0,0,1-1.48,1.91A1.74,1.74,0,0,1,103.83,48a48.31,48.31,0,0,1-2.37-9.87c-.27-2.62-.62-5.24-.87-7.87a9.73,9.73,0,0,1,.09-2.8,1.85,1.85,0,0,1,3.59-.24A13.49,13.49,0,0,1,105,29.9c.78,5.72,1.51,11.45,2.26,17.18Z"/><path class="cls-2" d="M66.84,93.92c-.68-.13-1.36-.22-2-.39s-1.24-.69-1-1.53.79-.91,1.49-.76c.25.05.49.12.74.16a2.35,2.35,0,0,0,2.63-1,3.53,3.53,0,0,1,3.43-1.58,2.17,2.17,0,0,0,2.38-1.1,2.86,2.86,0,0,1,3-1.46,3.21,3.21,0,0,0,3-1.14,2.71,2.71,0,0,1,2.38-.9,3.56,3.56,0,0,0,2.58-.9,8.37,8.37,0,0,1,2.35-1.06c1.23-.44,2.5-.79,3.72-1.25.65-.25,1.24-.43,1.65.25a1.18,1.18,0,0,1-.48,1.78,24.43,24.43,0,0,1-3.52,1.32,7.67,7.67,0,0,0-2.85,1.3,4.92,4.92,0,0,1-2.59.9,3,3,0,0,0-2.14.9,4.17,4.17,0,0,1-3.6,1.29,1.65,1.65,0,0,0-1.79.73,3.78,3.78,0,0,1-3.7,1.8,2.35,2.35,0,0,0-2.27,1A3.78,3.78,0,0,1,66.84,93.92Z"/><path class="cls-2" d="M107.4,60.52a2.79,2.79,0,0,1-2.62-2.86,2.61,2.61,0,0,1,2.64-2.4A2.57,2.57,0,0,1,110,57.92,2.48,2.48,0,0,1,107.4,60.52Z"/></g></g></svg>