<svg xmlns="http://www.w3.org/2000/svg" viewBox="0 0 177.58 116.04"><defs><style>.cls-1{fill:#fff;}.cls-2{fill:#f8b0c8;}.cls-3{fill:#75e1d1;}.cls-4{fill:#f8451d;}.cls-5{fill:#3e2a93;}</style></defs><title>symbol-03</title><g id="Layer_2" data-name="Layer 2"><g id="Objects"><g id="_Group_" data-name="&lt;Group&gt;"><path id="_Path_" data-name="&lt;Path&gt;" class="cls-1" d="M172.55,74.54c-2.4-3.14-5.21-6.14-6.51-10-1.54-4.53-1-9.32-.07-13.91,1.48-7,4.12-13.79,4.41-21,.47-11.69-6.91-22.91-17.6-27.54S129.73.63,121.66,8.62a27.66,27.66,0,0,0-5.09,6.82c-2.24,4.28-2.76,8.81-8.75,9.35-6.93.63-14.53-3-20.79-5.43-5.91-2.32-12-4.74-18.34-5.19-3.1-.22-5.85.44-8.86.81a10.38,10.38,0,0,1-8.46-2.2,40.88,40.88,0,0,0-3.49-2.49,30.2,30.2,0,0,0-29.09-.86C2.47,17.93-.62,39.9.09,56.26c1,15.13,6.64,30.11,19,39.59a64.9,64.9,0,0,0,40.2,13,43.69,43.69,0,0,0,18.59-4.47,35.94,35.94,0,0,0,7.84-5.5c1.83-1.67,3.44-3.69,5.54-5.06,2.71-1.77,5.37-1.34,8.37-.81,7.81,1.39,14.54,2.09,22.16-1.08,2.67-1.11,7.11-4.59,9.18,1.22.58,1.6-.25,4.62-.55,6.26a40.5,40.5,0,0,1-5.71,14.21c-.83,1.31.87,3.15,2.21,2.21,7.17-5.06,14.3-9.74,23.31-10.3,7-.43,14.28.77,20.32-3.61C180.11,94.91,179.06,83,172.55,74.54Z"/><g id="_Group_2" data-name="&lt;Group&gt;"><path id="_Compound_Path_" data-name="&lt;Compound Path&gt;" class="cls-2" d="M88.61,44.88A16.55,16.55,0,0,0,69.85,31,16,16,0,0,0,56.1,48.7c1.07,9,9.14,13.43,17.56,13.06a15.72,15.72,0,0,0,15.07-16,4.27,4.27,0,0,0-.11-.83S88.62,44.89,88.61,44.88Zm-26.1,2.95C61.08,35,79.92,34,82.26,45.94,82.19,57.12,63.77,59.15,62.51,47.83Z"/><path id="_Compound_Path_2" data-name="&lt;Compound Path&gt;" class="cls-3" d="M122.7,59.36a16.57,16.57,0,0,0-18.77-13.92A16,16,0,0,0,90.18,63.17c1.07,9,9.15,13.44,17.56,13.07a15.71,15.71,0,0,0,15.07-16,3.61,3.61,0,0,0-.11-.82Zm-26.11,3C95.16,49.5,114,48.49,116.34,60.42,116.28,71.6,97.85,73.63,96.59,62.31Z"/><path id="_Compound_Path_3" data-name="&lt;Compound Path&gt;" class="cls-4" d="M158,81.83c-7-3.81-11.74-10.3-15.77-17.08a52.22,52.22,0,0,0,9.06-17.52c2.64-9,4.52-28.53-10.42-26.65-13,1.65-11.58,25.34-9.52,34.22a45.82,45.82,0,0,0,3.14,9A46.53,46.53,0,0,1,124.43,72c-3.57,2.12-.33,7.71,3.26,5.58a53.49,53.49,0,0,0,10.11-7.81,50.26,50.26,0,0,0,18,16.6C159.51,88.32,161.69,83.82,158,81.83ZM136.61,45.94c-.26-4.83-.25-12.09,2.51-16.28,2.53-3.83,6.5-2.75,7.52,1.56a20.09,20.09,0,0,1,0,6.52,44.18,44.18,0,0,1-3.79,13.74,45.67,45.67,0,0,1-3.76,6.66A41.88,41.88,0,0,1,136.61,45.94Z"/><path id="_Path_2" data-name="&lt;Path&gt;" class="cls-5" d="M77.75,70.83c-12.34,14.92-36.57,15.79-48.14-.57-5.21-7.37-7.4-17-5-25.81,2.9-10.68,14.51-18,23.69-9,3,2.92,7.54-1.65,4.57-4.57A19.73,19.73,0,0,0,23.47,32.4c-8.06,10.11-7.75,24.72-2.42,36C32.38,92.3,63.48,94.5,80.17,74.32,82.8,71.14,80.41,67.62,77.75,70.83Z"/></g></g></g></g></svg>