<svg xmlns="http://www.w3.org/2000/svg" viewBox="0 0 157.78 89.16"><defs><style>.cls-1{fill:#18c9bc;}.cls-2{fill:#2b3590;}</style></defs><title>symbol-16</title><g id="Layer_2" data-name="Layer 2"><g id="OBJECTS"><path class="cls-1" d="M119.15,86.27c.29-.57.48-.89.63-1.23q4.25-9.32,8.48-18.64a8.76,8.76,0,0,1,4-4.25c3.11-1.7,6.22-3.44,9.17-5.4,5.14-3.44,9.71-7.52,12.73-13a17.06,17.06,0,0,0,2.31-10.06,17.57,17.57,0,0,0-4.22-9.6,35,35,0,0,0-10.87-8.48,75.77,75.77,0,0,0-19.08-6.84,122.06,122.06,0,0,0-23-2.91A162.28,162.28,0,0,0,73.68,7,153.5,153.5,0,0,0,55,10.42,114.91,114.91,0,0,0,31.53,19c-6.72,3.4-13,7.37-18,13.08-3.1,3.53-5.5,7.46-6,12.27a10.3,10.3,0,0,0,.57,5.22c.28-.53.44-.8.56-1.08.53-1.18,1-2.36,1.57-3.55.17-.4.35-.88.9-.69s.35.77.19,1.21q-.13.38-.3.75c-.67,1.47-1.36,2.93-2,4.41a2.12,2.12,0,0,0-.24,1.36,10.21,10.21,0,0,0,2.44,3.88c.71-1.44,1.33-2.74,2-4A5.75,5.75,0,0,1,14,50.58c.11-.13.49-.13.7-.06a.61.61,0,0,1,.24.54,2.26,2.26,0,0,1-.33.73L11.89,57l3.63,3.49c.4-1,.66-1.76,1-2.47.14-.27.57-.61.8-.57.6.11.44.64.29,1-.34.89-.71,1.77-1.1,2.73a32.52,32.52,0,0,0,5.95,3.8c.42-1.07.76-2,1.13-2.85a12.11,12.11,0,0,1,.79-1.76c.11-.2.51-.24.78-.35.1.28.32.57.28.82A8.93,8.93,0,0,1,25,62.26c-.45,1.12-.88,2.25-1.36,3.46l4.56,2.07L28.71,66c.19-.62.37-1.24.57-1.85s.43-1.1,1.11-.86.3.81.17,1.24c-.36,1.22-.75,2.44-1.18,3.82a41.37,41.37,0,0,0,5.75,1.8c.22-.57.41-1,.57-1.47.26-.76.47-1.55.79-2.29a.84.84,0,0,1,.73-.36.91.91,0,0,1,.42.73,2.53,2.53,0,0,1-.27.92c-.32,1-.64,1.9-1,3l6.25,1.52c.91-1.36.46-3.09,2-4.12,1,1.65-.58,2.93-.35,4.5l6.22,1c.46-1.33.85-2.44,1.25-3.55a3.18,3.18,0,0,1,.47-1,1.07,1.07,0,0,1,.81-.25c.1,0,.29.45.24.65A14.44,14.44,0,0,1,52.69,71c-.29.89-.56,1.79-.9,2.86l6.08.66c.36-1.14.63-2.07,1-3,.15-.43.3-1,1-.77s.32.71.2,1.11c-.25.86-.51,1.71-.8,2.69a35.79,35.79,0,0,0,7,.28c1.42-4,1.42-4,2.44-4.34.43,1.59-1.11,2.85-.85,4.46,2.51,0,4.92,0,7.33,0a1,1,0,0,0,1-.8c.36-1.07.76-2.13,1.16-3.19.18-.49.34-1.19,1-.93s.26.89.1,1.36c-.38,1.09-.77,2.18-1.24,3.52l6.15-.45c.44-1.24.8-2.31,1.2-3.36.16-.42.47-.85,1-.54.2.12.27.68.19,1-.23.87-.57,1.71-1,2.8,1.8-.17,3.39-.35,5-.46a1.77,1.77,0,0,0,1.77-1.52A3.42,3.42,0,0,1,92.71,70c1.31,1.14-.48,2.17,0,3.3a13.2,13.2,0,0,0,1.37-.1c1.37-.23,2.74-.49,4.16-.75l1-3.45a12.22,12.22,0,0,1,.55-1.68c.11-.22.49-.31.74-.46.15.26.42.52.42.78a7.13,7.13,0,0,1-.31,1.25c-.22,1.06-.87,2-.73,3.26,1.15-.22,2.2-.46,3.25-.62,2-.32,3.73,0,5.12,1.74,2.54,3.27,5.22,6.43,7.86,9.61C117.08,84,118,85,119.15,86.27Z"/><path class="cls-2" d="M89.94,0a171.42,171.42,0,0,1,24.9,2.33,95.13,95.13,0,0,1,18,4.91,51.94,51.94,0,0,1,16.71,9.87,25.69,25.69,0,0,1,6.84,9.64,19.85,19.85,0,0,1-.66,16c-2.38,5.26-6.19,9.4-10.59,13A65,65,0,0,1,131,64.65a6.66,6.66,0,0,0-3.69,3.94c-1.63,4.26-3.37,8.49-5.1,12.72-.71,1.74-1.48,3.46-2.26,5.17A6.32,6.32,0,0,1,119,88a2.89,2.89,0,0,1-4.3.41,32.61,32.61,0,0,1-4-4c-2.39-2.9-4.67-5.89-7-8.88a1.57,1.57,0,0,0-1.91-.67,127.56,127.56,0,0,1-18.13,2.84A169,169,0,0,1,61,78.3a132.84,132.84,0,0,1-17.8-1.9A97.75,97.75,0,0,1,24.4,71.24a52,52,0,0,1-15.53-9A25.82,25.82,0,0,1,1.31,51.7a19.91,19.91,0,0,1,.11-14.49c2-5.22,5.4-9.37,9.49-13A72.75,72.75,0,0,1,28.79,12.75,113,113,0,0,1,44.15,6.92,140.67,140.67,0,0,1,71.6,1.3C77.7.69,83.83.42,89.94,0Zm26.49,85.17c.3-.57.48-.89.63-1.22,2.83-6.22,5.68-12.43,8.48-18.65a8.76,8.76,0,0,1,4-4.25c3.11-1.7,6.22-3.43,9.17-5.4,5.14-3.44,9.71-7.52,12.74-13a17.13,17.13,0,0,0,2.3-10.06A17.51,17.51,0,0,0,149.52,23a34.92,34.92,0,0,0-10.87-8.49,75.84,75.84,0,0,0-19.07-6.84,122.27,122.27,0,0,0-23-2.91A162.28,162.28,0,0,0,71,5.85,153,153,0,0,0,52.27,9.32a114.78,114.78,0,0,0-23.46,8.54c-6.72,3.4-13,7.38-18,13.08-3.1,3.53-5.49,7.46-6,12.27a10.29,10.29,0,0,0,.56,5.22c.28-.53.44-.8.57-1.08L7.49,43.8c.17-.4.35-.88.9-.69s.35.77.19,1.21q-.13.38-.3.75c-.67,1.47-1.36,2.93-2,4.41a2.05,2.05,0,0,0-.23,1.36,10.06,10.06,0,0,0,2.43,3.88c.71-1.44,1.34-2.74,2-4a5.75,5.75,0,0,1,.78-1.22.83.83,0,0,1,.7-.06.61.61,0,0,1,.24.54,2.46,2.46,0,0,1-.32.73L9.17,55.93l3.63,3.49c.41-1,.67-1.76,1-2.47.14-.27.57-.61.8-.57.6.11.44.64.29,1-.34.89-.71,1.77-1.1,2.73A32,32,0,0,0,19.77,64c.42-1.06.77-2,1.13-2.85a12.11,12.11,0,0,1,.79-1.76c.12-.2.51-.24.78-.35.1.28.32.57.28.82a8,8,0,0,1-.52,1.35c-.44,1.12-.88,2.25-1.36,3.46l4.56,2.08c.23-.73.4-1.29.56-1.84s.37-1.24.57-1.85.43-1.1,1.11-.86.3.81.17,1.24c-.36,1.22-.75,2.44-1.18,3.82A41.43,41.43,0,0,0,32.41,69c.23-.58.41-1,.57-1.48.26-.76.47-1.55.79-2.29a.84.84,0,0,1,.73-.36c.22.07.41.47.43.73a2.77,2.77,0,0,1-.28.92l-1,3,6.24,1.52c.91-1.36.46-3.08,2-4.12,1,1.65-.58,2.93-.35,4.5l6.22,1c.46-1.33.85-2.44,1.25-3.55a3.18,3.18,0,0,1,.47-1,1.07,1.07,0,0,1,.81-.25c.1,0,.29.45.25.66-.12.52-.35,1-.51,1.52-.29.89-.57,1.79-.91,2.86l6.08.66c.36-1.14.63-2.07,1-3,.15-.43.3-1,1-.77s.32.71.2,1.11c-.25.86-.51,1.71-.8,2.69a35.79,35.79,0,0,0,7,.28c1.43-4,1.43-4,2.44-4.34.43,1.59-1.11,2.85-.85,4.46,2.51,0,4.92,0,7.34,0a1,1,0,0,0,1-.8c.35-1.07.75-2.13,1.15-3.19.18-.49.34-1.19,1-.93s.26.89.1,1.36c-.37,1.09-.77,2.18-1.24,3.52l6.15-.45c.44-1.24.8-2.31,1.2-3.36.16-.42.47-.85,1-.54.2.13.27.68.19,1-.23.87-.57,1.71-1,2.8,1.8-.17,3.39-.35,5-.46a1.77,1.77,0,0,0,1.77-1.52A3.42,3.42,0,0,1,90,68.94c1.31,1.14-.48,2.18,0,3.3a13.2,13.2,0,0,0,1.37-.1c1.37-.23,2.74-.49,4.16-.75l1-3.45a12.22,12.22,0,0,1,.55-1.68c.11-.22.49-.31.74-.46.15.26.42.52.42.78a8.1,8.1,0,0,1-.3,1.25c-.23,1.06-.88,2-.74,3.26,1.15-.22,2.2-.45,3.25-.62,2-.32,3.73,0,5.12,1.74,2.54,3.27,5.22,6.43,7.87,9.61C114.37,82.9,115.32,83.91,116.43,85.17Z"/><path class="cls-2" d="M75.4,34.23c-.23.64-.43,1.29-.69,1.92a25.73,25.73,0,0,1-1.6,3.68c-1.43,2.34-4,2.84-6,1a35.19,35.19,0,0,1-4-4.64A39.61,39.61,0,0,0,60,32.39c0,.26,0,.53,0,.79q.85,8.82,1.7,17.65c.24,2.51.47,5,.7,7.54a3,3,0,0,1-2,3,2.56,2.56,0,0,1-3-1.84A11,11,0,0,1,57,57.63a181.59,181.59,0,0,1-2.12-23.75c-.1-2.63-.36-5.25-.53-7.88-.06-.86-.06-1.72-.09-2.58a2.51,2.51,0,0,1,1.59-2.72,2.47,2.47,0,0,1,3,.87c2.52,3,5.06,6,7.58,9,.76.9,1.47,1.83,2.43,3,.29-.86.5-1.43.66-2,1-3.57,2-7.15,3-10.71a8.85,8.85,0,0,1,1.2-2.45,3.2,3.2,0,0,1,5.51,0,9.68,9.68,0,0,1,1.22,3.45c.46,2.75.73,5.54,1.12,8.31.7,4.94,1.43,9.88,2.14,14.82q.77,5.26,1.51,10.53a3.87,3.87,0,0,1,0,1.27A2.71,2.71,0,0,1,82.72,59a2.59,2.59,0,0,1-2.65-1.92c-.29-.92-.5-1.87-.74-2.81-1.4-5.63-2.39-11.35-3.25-17.09-.14-1-.21-1.91-.31-2.86Z"/><path class="cls-2" d="M26,41.57c.16-4.13.66-8.7,2.74-12.94a2.32,2.32,0,0,0,.24-.76c.45-3.55,2.73-5.58,5.81-6.87a7.59,7.59,0,0,1,7.74,1.14c3,2.13,4.63,5.18,5.82,8.5a32.9,32.9,0,0,1,1.93,11.22c0,5.58-.85,11-4,15.87a12.19,12.19,0,0,1-3.17,3.39c-3.67,2.67-7.83,2.14-11-.9a17.15,17.15,0,0,1-4-6.16A35.26,35.26,0,0,1,26,41.57Zm17.05,1.27c0-.7,0-1.4,0-2.1-.23-4.06-.93-8-3.17-11.51A8,8,0,0,0,38,27.32a1.47,1.47,0,0,0-2,0c-1.54,1.52-3.38,2.75-3.92,5.11a33.89,33.89,0,0,0,.12,15.8,17.55,17.55,0,0,0,2.84,6.25c2,2.71,3.89,2.23,5.42-.5A22.51,22.51,0,0,0,43.06,42.84Z"/><path class="cls-2" d="M105.38,47.73c-.73-.21-1.24-.33-1.74-.49a3.09,3.09,0,0,1-2.37-3.08,3.28,3.28,0,0,1,2.8-2.92,13.61,13.61,0,0,1,6.2.7,3.5,3.5,0,0,1,2.22,4.83,20.49,20.49,0,0,1-6.67,9.14c-4,3-8.88,2-12-2.33a22.83,22.83,0,0,1-3.89-10.13,40,40,0,0,1,.16-13.64,24.49,24.49,0,0,1,3.43-9.32,11.84,11.84,0,0,1,3.82-3.63,6.69,6.69,0,0,1,7.56.63,17,17,0,0,1,4.56,5.56,23.35,23.35,0,0,1,2.85,14.16,2.36,2.36,0,0,1-2.15,2.4,2.24,2.24,0,0,1-2.46-2,26.91,26.91,0,0,1-.32-3.36,17.71,17.71,0,0,0-4.57-11.28,7.67,7.67,0,0,0-.58-.56c-1.12-.92-1.77-.87-2.75.24a11.72,11.72,0,0,0-2.33,4.92,32.58,32.58,0,0,0-.1,16.75,21.48,21.48,0,0,0,2.16,5c1.16,2,2.45,2.13,4.18.56C104.06,49.24,104.63,48.53,105.38,47.73Z"/><path class="cls-2" d="M119,25.72c0-2.56,0-4.77,0-7a2,2,0,0,1,1.88-2.22,2.11,2.11,0,0,1,2.48,1.79c.42,2.38.85,4.77,1.08,7.17.51,5.41.89,10.83,1.33,16.24,0,.32,0,.64,0,1a2.43,2.43,0,0,1-2.05,2.5,2.55,2.55,0,0,1-2.88-1.57,9,9,0,0,1-.53-2.35C119.84,36,119.4,30.68,119,25.72Z"/><path class="cls-2" d="M135.69,32.22c0,1.45,0,2.9,0,4.35a7.3,7.3,0,0,1-.24,1.74,1.67,1.67,0,0,1-1.65,1.31,1.76,1.76,0,0,1-1.81-1.1,9.37,9.37,0,0,1-.65-2.64c-.3-5.05-.53-10.1-.77-15.15a7.07,7.07,0,0,1,.09-1.45,2.05,2.05,0,0,1,1.88-1.89,1.9,1.9,0,0,1,1.9,1.66,39.4,39.4,0,0,1,.63,4.47c.22,2.89.35,5.79.51,8.69Z"/><path class="cls-2" d="M124,56.3a2.67,2.67,0,0,1-2.65-2.5c0-1.72,1-3,2.46-3a3,3,0,0,1,2.91,2.69A2.81,2.81,0,0,1,124,56.3Z"/><path class="cls-2" d="M134.5,51.57a2.37,2.37,0,0,1-2.33-2.39,2.64,2.64,0,0,1,2.28-2.83c1.44,0,2.36,1.13,2.37,2.89A2.2,2.2,0,0,1,134.5,51.57Z"/></g></g></svg>