<svg xmlns="http://www.w3.org/2000/svg" viewBox="0 0 151.47 177.82"><defs><style>.cls-1{fill:#8eedef;}.cls-2{fill:#2b3590;}</style></defs><title>symbol-11</title><g id="Layer_2" data-name="Layer 2"><g id="OBJECTS"><path class="cls-1" d="M56.06,150.21a35,35,0,0,0,2.39,14,17.62,17.62,0,0,0,7.43,9,18.57,18.57,0,0,0,10.2,2.45,23.38,23.38,0,0,0,8.56-2.15A19.56,19.56,0,0,0,96,160.87c1.81-5.92,1.59-11.93.75-17.91-.8-5.65-2-11.23-2.92-16.85a33.66,33.66,0,0,1-.42-10.6A10,10,0,0,1,95.92,110c1.87-2,5.71-2.07,8.36-.34a14.6,14.6,0,0,1,5.16,6.47c1.13,2.44,2.25,4.89,3.29,7.37a10.33,10.33,0,0,0,6.18,5.77,4,4,0,0,0,4.92-1.29,9.07,9.07,0,0,0,2.16-5.13,18.8,18.8,0,0,0-2.77-11.24c-1.86-3.28-3.66-6.58-5.37-9.93a13.34,13.34,0,0,1-.4-11.09,18.14,18.14,0,0,1,4.92-6.9,47.61,47.61,0,0,1,10-6.78,38.24,38.24,0,0,0,6.94-4.65,30.32,30.32,0,0,0,8.89-13.6,20,20,0,0,0,.64-11.43c-1.75-6.67-8.44-11.75-15.14-11.23A31.07,31.07,0,0,0,118,41.81c-4.34,3.06-7.86,7-11.37,10.92a58.76,58.76,0,0,1-5.29,5.41c-1.63,1.39-3.58,2.51-5.89,2.16-3.32-.5-5.36-2.62-6.45-5.64A24.75,24.75,0,0,1,87.5,44c.4-4.49,1-9,1.51-13.46a43.16,43.16,0,0,0,.38-6.9c-.22-3.82-3.3-6.06-7.12-5.07a14.75,14.75,0,0,0-6,3.09,21,21,0,0,0-5.91,8.15,65.71,65.71,0,0,0-3.9,12.78c-.7,3.54-1.42,7.07-2.32,10.56a19.37,19.37,0,0,1-3.7,8c-1.64,1.92-3.63,3.26-6.26,3.07a17.84,17.84,0,0,1-4.09-.8,16.91,16.91,0,0,1-6.78-4.52,112.11,112.11,0,0,1-11-12.4A15.24,15.24,0,0,0,26.94,42c-1.9-1-3.41-.78-4.75.89A13.67,13.67,0,0,0,20,46.57,24.91,24.91,0,0,0,19.19,62,40.43,40.43,0,0,0,30.48,81a17.16,17.16,0,0,0,4.9,3.89c.78.34.85,1,.87,1.73A2.84,2.84,0,0,1,35.07,89a14.31,14.31,0,0,1-5.91,2.45c-2.92.7-5.88,1.26-8.8,2C15.93,94.52,12,96.48,9,100.1a12.61,12.61,0,0,0,.38,16.19,17.74,17.74,0,0,0,8.07,5.41,17.29,17.29,0,0,0,7.45.9,27.13,27.13,0,0,0,6.64-1.89,51.8,51.8,0,0,0,9.84-5.48,40.14,40.14,0,0,1,7-3.92,7.11,7.11,0,0,1,8.82,3A21.62,21.62,0,0,1,60.11,126c0,4.14-1.24,8.06-2.17,12C57,142.26,55.94,146.44,56.06,150.21Z"/><path class="cls-2" d="M31.33,142.1a90.09,90.09,0,0,1-2.4,17.54,17.05,17.05,0,0,1-4.49,8.6c-2.66,2.58-6,2.19-8.06-.94a13.33,13.33,0,0,1-1.82-9.76,31.36,31.36,0,0,1,10.58-18.7,19.35,19.35,0,0,1,2.92-2.19,2.07,2.07,0,0,1,3.24,1.59c0,.16,0,.32,0,.48C31.33,139.85,31.33,141,31.33,142.1Zm-4.57,1.05-.37-.16c-1.16,1.55-2.39,3-3.45,4.65a25.33,25.33,0,0,0-4.23,11.71,7.5,7.5,0,0,0,2,6.31,16.38,16.38,0,0,0,1.32-1.3,14.85,14.85,0,0,0,2.83-6.26,80.92,80.92,0,0,0,1.88-13.23C26.79,144.3,26.76,143.72,26.76,143.15Z"/><path class="cls-2" d="M49.29,19.67a95.88,95.88,0,0,1-1.46,13.19c-.29,1.7-1.1,2.24-2.78,2.2a4.55,4.55,0,0,1-3.19-1.29,23.62,23.62,0,0,1-4.29-5.42c-3.16-5.37-5.27-11.07-5-17.42a14.3,14.3,0,0,1,2.75-8.61,5.26,5.26,0,0,1,7.82-1A12.15,12.15,0,0,1,47.39,7,39.35,39.35,0,0,1,49.29,19.67Zm-5.52,11a4.24,4.24,0,0,0,.27-.77c.29-2.78.68-5.55.8-8.34A37.51,37.51,0,0,0,43.47,8.28a8.41,8.41,0,0,0-2-3.44c-1.61-1.64-2.81-1.47-3.9.54A4.07,4.07,0,0,0,37,6.56a27.85,27.85,0,0,0-.84,5.38c.1,6.33,2.45,11.93,6.12,17C42.72,29.5,43.21,30,43.77,30.63Z"/><path class="cls-2" d="M103.83,22.8A15.3,15.3,0,0,1,106.11,15a22.84,22.84,0,0,1,9.12-9.11,8.39,8.39,0,0,1,4.69-.83,3.47,3.47,0,0,1,2.86,1.85,5.89,5.89,0,0,1,.16,6,15.55,15.55,0,0,1-5.66,5.84c-3.29,1.94-6.59,3.85-9.88,5.78-.23.13-.45.3-.69.42-1.8.88-2.87.19-2.88-1.86Zm4.58-3.37c2.66-1.49,5.4-2.88,8-4.54a14.27,14.27,0,0,0,3.1-3.24,3.23,3.23,0,0,0,.51-2c0-.9-.52-1.24-1.42-1a7.18,7.18,0,0,0-2,.73,18.35,18.35,0,0,0-6.28,5.92A8.87,8.87,0,0,0,108.41,19.43Z"/><path class="cls-2" d="M80,21.58c1.15.14,2.14.18,2.57,1.23a2.36,2.36,0,0,1-.76,2.75,23.09,23.09,0,0,0-6.26,10.37C74.68,39,74,42.18,73.21,45.3c-.71,2.81-1.4,5.63-2.14,8.43a14.53,14.53,0,0,1-2.84,4.84A2.18,2.18,0,0,1,64.36,57a14.4,14.4,0,0,1,.5-2.19c1.36-5.24,2.7-10.5,4.1-15.74a40.44,40.44,0,0,1,4.66-11.61,15.64,15.64,0,0,1,5.14-5.25A10.72,10.72,0,0,1,80,21.58Z"/><path class="cls-2" d="M44.79,95.4a2.25,2.25,0,0,0,1.35-2.57,6.64,6.64,0,0,0-2-4.12c-.8-.8-1.64-1.56-2.4-2.39a8.44,8.44,0,0,1-1.51-9.83,5.32,5.32,0,0,1,7.45-2.26,7.69,7.69,0,0,1,3.44,5.06,12.93,12.93,0,0,1,.08,3.35,3.41,3.41,0,0,1-.57,1.48,1.8,1.8,0,0,1-2.18.94c-.76-.23-1.12-.8-1.08-1.92a6.88,6.88,0,0,0-.59-3.92c-.69-1.17-1.32-1.71-2-1.54A2.3,2.3,0,0,0,43.33,80a5,5,0,0,0,1.57,3.76c1,.94,1.93,1.87,2.85,2.85a10,10,0,0,1,2.47,8.52A6.79,6.79,0,0,1,45,100.2a4.46,4.46,0,0,1-3.65-1.41c-2.29-2.22-2.49-5-1.2-7.7a2,2,0,0,1,2.18-1c1,.24,1.29.71,1.31,1.91C43.61,94,43.76,94.4,44.79,95.4Z"/><path class="cls-2" d="M106.45,87l-3.58.31c0,1.62,0,3.11,0,4.59a5.08,5.08,0,0,1-.12,1.41,1.92,1.92,0,0,1-2.07,1.45,1.88,1.88,0,0,1-1.9-1.64,17.63,17.63,0,0,1-.25-2.72Q98.35,83.2,98.22,76a12.84,12.84,0,0,1,.14-2.24,1.58,1.58,0,0,1,1.56-1.53,1.42,1.42,0,0,1,1.74,1.29,40,40,0,0,1,.6,4.62c.16,1.76.23,3.52.34,5.45l3.53-.62c0-1.19,0-2.3,0-3.42,0-1.82,0-3.65.07-5.48a6.79,6.79,0,0,1,.41-2A1.5,1.5,0,0,1,108.09,71a1.61,1.61,0,0,1,1.57,1.17,5.22,5.22,0,0,1,.22,1.59q.24,7.65.47,15.3c0,1.5.07,3,0,4.51A2.41,2.41,0,0,1,109.8,95a1.72,1.72,0,0,1-2.91-.84,31.76,31.76,0,0,1-.43-4.47C106.4,88.87,106.45,88,106.45,87Z"/><path class="cls-2" d="M91,148.69c-.32,5.34-1.72,10.26-5.67,14.14a13,13,0,0,1-10.06,3.82A2.46,2.46,0,0,1,73,163.08a2.63,2.63,0,0,1,1.9-1.53c5.09-1.61,8.51-4.76,9.78-10.09a27.93,27.93,0,0,0,.81-7.34,6.51,6.51,0,0,1,.17-1.59c.27-1.17.72-1.6,1.64-1.71,1.33-.16,2,.11,2.48,1.27A15.64,15.64,0,0,1,91,148.69Z"/><path class="cls-2" d="M90.86,91.6a3.58,3.58,0,0,0-.08-3.71,10.49,10.49,0,0,0-1.53-2.06,11.85,11.85,0,0,1-3.12-6.92A6.91,6.91,0,0,1,88.46,73a4.62,4.62,0,0,1,6.63.46,8,8,0,0,1,1.33,7.63,3.12,3.12,0,0,1-.42.86,1.39,1.39,0,0,1-1.54.64,1.36,1.36,0,0,1-1.14-1.21,10.46,10.46,0,0,1,0-1.77,4.76,4.76,0,0,0-.77-3.07,4.3,4.3,0,0,0-.86-.72,3,3,0,0,0-.87,3.3,11.57,11.57,0,0,0,2.36,4.18A10.8,10.8,0,0,1,96,89.67c.14,2.29-.24,4.44-2.33,5.83-2.42,1.61-5.83.92-6.72-1.83A14.47,14.47,0,0,1,86.25,91a3.93,3.93,0,0,1,.28-1.88,1.7,1.7,0,0,1,3.06-.47,5.45,5.45,0,0,1,.73,1.42C90.49,90.46,90.6,90.86,90.86,91.6Z"/><path class="cls-2" d="M81.21,88.68l-2.78.42c0,1.53,0,3,0,4.53a5.58,5.58,0,0,1-.21,1.58,1.54,1.54,0,0,1-1.53,1.21,1.46,1.46,0,0,1-1.52-1.2,27.82,27.82,0,0,1-.55-3.83,54.77,54.77,0,0,1,.91-13.82,10.42,10.42,0,0,1,1-2.86,2.62,2.62,0,0,1,4.45-.6,8.41,8.41,0,0,1,1.89,3.48c.69,2.87,1.06,5.81,1.6,8.71A22.43,22.43,0,0,1,85.1,93c0,.32,0,.65-.12,1-.2.84-.76,1.39-1.38,1.37a1.74,1.74,0,0,1-1.31-1.43l-.84-4.43C81.41,89.29,81.33,89.09,81.21,88.68Zm-1.62-9H79.1c-.2,1.92-.41,3.85-.63,5.94l2.26-.15C80.33,83.41,80,81.53,79.59,79.66Z"/><path class="cls-2" d="M56.93,88.88c0,1.71,0,3.21,0,4.7,0,1-.07,2-.12,3.06a2.34,2.34,0,0,1-.12.63,2.06,2.06,0,0,1-1.63,1.37,2,2,0,0,1-1.63-1.36,14.5,14.5,0,0,1-.36-2.55q-.27-7.41-.44-14.83a31.79,31.79,0,0,1,.23-3.37,2.9,2.9,0,0,1,2.5-2.75,7,7,0,0,1,7.75,3.61c1.65,3.43,1.46,6.71-1.34,9.5A6.7,6.7,0,0,1,56.93,88.88Zm-.38-4c3-.5,4.1-2,3.74-4.34a3.47,3.47,0,0,0-4.17-3.07C56.26,79.92,56.4,82.34,56.55,84.9Z"/><path class="cls-2" d="M24.24,45.56a2.16,2.16,0,0,1,2,2.75,27.66,27.66,0,0,0-.58,2.82,14.24,14.24,0,0,0,1.57,7.65c1.21,2.64,2.63,5.17,3.95,7.75.49,1,1,1.89,1.47,2.87a2.4,2.4,0,0,1-1.11,3.47,2.46,2.46,0,0,1-1.63.17,2.82,2.82,0,0,1-1.31-.89,33.12,33.12,0,0,1-8.16-17.57A12.52,12.52,0,0,1,21,48.86a4.87,4.87,0,0,1,2.41-3.09A3.43,3.43,0,0,1,24.24,45.56Z"/><path class="cls-2" d="M142.08,48.73a18.79,18.79,0,0,1-5.54,13.7,27.39,27.39,0,0,1-5,3.54,2.14,2.14,0,0,1-2.66-.41,2.28,2.28,0,0,1,.24-3c.81-.93,1.77-1.75,2.49-2.74a50.27,50.27,0,0,0,3.57-5.35c1.6-2.88,1.54-6.08,1.35-9.26a17.63,17.63,0,0,1-.09-1.77,1.88,1.88,0,0,1,1.18-1.78,2.05,2.05,0,0,1,2.25.46,6.35,6.35,0,0,1,1.79,3.37C141.87,46.59,142,47.67,142.08,48.73Z"/><path class="cls-2" d="M9.83,105.27a9.71,9.71,0,0,1,2.46-6.84,2.13,2.13,0,0,1,2.58-.71c1.12.55,1.42,1.33.87,2.68a8.79,8.79,0,0,0-.48,4.57,7.21,7.21,0,0,0,2.59,4.66,14.54,14.54,0,0,1,1.47,1.65c1,1.15.15,2.19-.22,3.25a.17.17,0,0,1-.1.12c-.24.1-.5.3-.72.26-1.05-.19-1.81,1.09-3,.38a10.17,10.17,0,0,1-4.05-4A11.52,11.52,0,0,1,9.83,105.27Z"/><path class="cls-2" d="M69.11,91.52c1,.17,1.88.27,2.7.47,1,.23,1.33.71,1.35,1.53a1.44,1.44,0,0,1-1.3,1.58,23.93,23.93,0,0,1-4.31.33,2.91,2.91,0,0,1-2.39-2.68C65,91.53,65,90.3,65,89.07c-.07-3.76-.13-7.51-.14-11.26a27,27,0,0,1,.27-3.37c.16-1.17.85-1.87,1.67-1.82s1.46.7,1.56,1.94c.14,1.76.22,3.53.29,5.3.14,3.33.26,6.66.38,10C69,90.37,69.08,90.9,69.11,91.52Z"/><path class="cls-2" d="M65.23,164.63A3.61,3.61,0,0,1,62,161.09,3.3,3.3,0,0,1,65.41,158a3.32,3.32,0,1,1-.18,6.63Z"/><path class="cls-2" d="M72.75,177.82A21.51,21.51,0,0,1,61,174.6a21.86,21.86,0,0,1-8.79-10.84c-2.87-7.38-3.42-15.18-1.67-23.83.46-2.26,1-4.54,1.57-6.75.37-1.51.74-3,1.09-4.53.76-3.35,1.39-7.32.25-11.33a16.9,16.9,0,0,0-1.2-3.2,2.88,2.88,0,0,0-2.55-1.8,3.53,3.53,0,0,0-1.63.45A42.07,42.07,0,0,0,42.68,116a56.84,56.84,0,0,1-12.9,7.37,23.11,23.11,0,0,1-8.51,1.66,21.09,21.09,0,0,1-2.38-.13A21.12,21.12,0,0,1,2.34,114.45,15.81,15.81,0,0,1,.5,102.14c1.34-5.56,4.89-9.75,10.84-12.8,4.09-2.11,8.71-3,13.17-3.87l.61-.11c.73-.15,1.44-.34,2.06-.52l.72-.2,1.58-.4L28.4,83l-1.19-1.36c-.84-1-1.71-2-2.61-2.93A41,41,0,0,1,13.81,58.58a27.51,27.51,0,0,1,1.67-16.5,13.45,13.45,0,0,1,2.86-4.21,6.79,6.79,0,0,1,4.93-2A7.71,7.71,0,0,1,27.21,37a26.75,26.75,0,0,1,6.91,6.21A87.1,87.1,0,0,0,45.94,55.34,13.27,13.27,0,0,0,51.74,58a3.94,3.94,0,0,0,.89.11,4.32,4.32,0,0,0,3.22-1.61,13.13,13.13,0,0,0,2.88-5.71c1-3.74,1.84-7.5,2.69-11.34,1.14-5.14,2.73-11.13,5.89-16.52a20.77,20.77,0,0,1,11.26-9.57,10.79,10.79,0,0,1,3.6-.56c.37,0,.74,0,1.1,0,3.76.25,6.49,2.71,7.51,6.73.7,2.78.42,5.61.14,8.59l-.07.71c-.13,1.38-.28,2.77-.42,4.16-.28,2.74-.57,5.58-.77,8.38a24.42,24.42,0,0,0,1,9l0,.16a2.6,2.6,0,0,0,.21.59c.72,1.48,1.77,3.18,3.49,3.18a4.73,4.73,0,0,0,3-1.42,44.54,44.54,0,0,0,4.4-4.51l.72-.81a90.12,90.12,0,0,1,9-9.07c5.85-4.89,11.94-7.63,18.63-8.36a22.1,22.1,0,0,1,2.42-.14c5.93,0,10.93,2.52,14.85,7.47s5,10.85,3.4,18a33.49,33.49,0,0,1-16.43,21.91c-.65.38-1.31.75-2,1.12a48.81,48.81,0,0,0-8.47,5.62,13.72,13.72,0,0,0-4.71,7.12,9.08,9.08,0,0,0,.71,6.32c1.74,3.4,3.2,6.12,4.6,8.56,2.68,4.69,3.87,9.09,3.63,13.43a12.72,12.72,0,0,1-4.52,9.47,6.22,6.22,0,0,1-4.07,1.51,8.22,8.22,0,0,1-2.72-.5,12.79,12.79,0,0,1-7.87-7.35c-1.16-2.84-2.12-5-3.1-7a32.52,32.52,0,0,0-2.65-4.4,6.21,6.21,0,0,0-3.64-2.39,4.37,4.37,0,0,0-1-.12,3,3,0,0,0-2.7,1.68,9.58,9.58,0,0,0-1.07,6.11c.43,3.86,1,7.32,1.58,10.6.34,1.74.71,3.47,1.09,5.21a98.05,98.05,0,0,1,2,11.5c.41,4.29.66,9.33-.6,14.25-1.72,6.71-5.13,11.63-10.43,15a27.67,27.67,0,0,1-10.75,4.31A33.34,33.34,0,0,1,72.75,177.82ZM49.46,109.35a6.13,6.13,0,0,1,5.29,3c1.87,3,2.73,6.6,2.71,11.22A40,40,0,0,1,55.89,133c-.19.79-.39,1.58-.57,2.37l-.16.68c-.92,3.95-1.87,8-1.75,11.72a35.81,35.81,0,0,0,2.46,14.31,18.48,18.48,0,0,0,7.86,9.51,19.39,19.39,0,0,0,9.89,2.61h.85A24.29,24.29,0,0,0,83.39,172,20.6,20.6,0,0,0,95.3,158.73c2-6.66,1.49-13.3.78-18.34-.45-3.26-1.06-6.54-1.65-9.71-.43-2.34-.88-4.77-1.26-7.16a32.6,32.6,0,0,1-.42-10.28,9,9,0,0,1,2.25-5A4.69,4.69,0,0,1,98.42,107a6.79,6.79,0,0,1,3.67,1.07,13.49,13.49,0,0,1,4.8,6c1.07,2.33,2.21,4.81,3.26,7.34a11.29,11.29,0,0,0,6.75,6.31,5.84,5.84,0,0,0,2.1.43,5.1,5.1,0,0,0,3.94-2,10.09,10.09,0,0,0,2.39-5.68,19.79,19.79,0,0,0-2.9-11.84c-2-3.58-3.78-6.82-5.35-9.88a12.31,12.31,0,0,1-.34-10.3A16.9,16.9,0,0,1,121.41,82a46.77,46.77,0,0,1,9.77-6.63,39.78,39.78,0,0,0,7.12-4.78,31.35,31.35,0,0,0,9.18-14,20.86,20.86,0,0,0,.65-12c-1.79-6.84-8.31-12-15.16-12-.34,0-.68,0-1,0a32,32,0,0,0-16.2,6c-4.49,3.16-8.08,7.18-11.55,11.07A56.37,56.37,0,0,1,99,55a6.78,6.78,0,0,1-4.38,2,4.12,4.12,0,0,1-.7,0c-2.75-.41-4.6-2-5.66-5a23.57,23.57,0,0,1-1.41-10.21c.22-2.54.54-5.13.84-7.63.23-1.94.47-3.87.67-5.81l.06-.59a41,41,0,0,0,.32-6.48,6.29,6.29,0,0,0-6.36-6.25,7.83,7.83,0,0,0-2,.27A15.9,15.9,0,0,0,74,18.48,22,22,0,0,0,67.84,27a67.11,67.11,0,0,0-4,13c-.74,3.74-1.43,7.11-2.31,10.5a18.57,18.57,0,0,1-3.49,7.59c-1.6,1.87-3.19,2.74-5,2.74h-.41a17.17,17.17,0,0,1-3.87-.76,16.14,16.14,0,0,1-6.37-4.28A112.48,112.48,0,0,1,31.47,43.49a16.33,16.33,0,0,0-5.72-4.85A5.56,5.56,0,0,0,23.2,38a4.38,4.38,0,0,0-3.44,1.84,14.67,14.67,0,0,0-2.34,4,26,26,0,0,0-.85,16A41.55,41.55,0,0,0,28.13,79.3l.58.57a15.51,15.51,0,0,0,4.62,3.52c.15.07.25.11.27.84a1.81,1.81,0,0,1-.81,1.55A13.49,13.49,0,0,1,27.28,88c-1.34.32-2.68.61-4,.9-1.57.34-3.2.69-4.8,1.08-5.17,1.29-9,3.58-11.85,7A13.55,13.55,0,0,0,7,114.51a18.81,18.81,0,0,0,8.52,5.72,19.92,19.92,0,0,0,6.06,1,15.74,15.74,0,0,0,1.82-.11,27.71,27.71,0,0,0,6.88-2,52.52,52.52,0,0,0,10-5.58,41,41,0,0,1,6.85-3.83A6.16,6.16,0,0,1,49.46,109.35Z"/></g></g></svg>