<svg xmlns="http://www.w3.org/2000/svg" viewBox="0 0 154.98 122.77"><defs><style>.cls-1{fill:#3e2a93;}.cls-2{fill:#f8451d;}.cls-3{fill:#fff;}.cls-4{fill:#75e1d1;}.cls-5{fill:#f8b0c8;}</style></defs><title>symbol-01</title><g id="Layer_2" data-name="Layer 2"><g id="Objects"><g id="_Group_" data-name="&lt;Group&gt;"><path id="_Path_" data-name="&lt;Path&gt;" class="cls-1" d="M151.81,59.18c-6.31-11.72-19.14-17.68-21.9-31.64-2.53-13.35-9.84-24.52-24-27a32.45,32.45,0,0,0-12.8.29C87.69,2,82.7,4.72,77.24,5.89c-11,2.35-22-3.6-32.85-5.14C27.18-1.69,6.6,4,1,22.51c-2.6,8.56.39,15.93,4.13,23.59,2.54,5.18,4.25,10,4.06,15.85C9,67.3,8,72.71,9.22,78c2.1,8.92,9.72,15.23,17.69,18.93,5,2.31,10.78,3.54,14.73,7.56C46.1,109,48.07,115.38,50,121.28c.65,2,4.12,2.06,4-.4-.33-9.06,10-10.87,17-10.77,5.9.09,11.94.75,17.6-1.36,5.88-2.19,9.45-7.07,16.06-7.88,6.19-.76,12.5.57,18.67.94,10.7.63,20.52-2.46,26.65-11.74C155.68,81.36,156.81,68.47,151.81,59.18Z"/><g id="_Group_2" data-name="&lt;Group&gt;"><path id="_Compound_Path_" data-name="&lt;Compound Path&gt;" class="cls-2" d="M66.48,40.28c6.21-1.78,10-11,6.73-16.65-2.22-3.78-7.52-5.07-11.59-4.06-5,1.24-7.73,5.17-8.28,10a2.88,2.88,0,0,0-.06.67,2.5,2.5,0,0,0,.07.79C54,37.37,60.1,42.12,66.48,40.28ZM65,24.35c2,.25,4.16,1.08,4.34,3.43a9.6,9.6,0,0,1-2.23,6.48c-3.16,3.16-8.6.4-8.73-3.8C58.61,26.63,61.37,23.89,65,24.35Z"/><path id="_Path_2" data-name="&lt;Path&gt;" class="cls-3" d="M121.15,41.21c-4.68-.23-8.85-2.23-11-6.82-2-4.33-1.74-9.32-1.19-14l-5.18.09c-1.14,7.57-3.4,20.06-11.63,19.08-10.07-1.19-6.41-15-4.23-22-1.7-.2-3.41-.36-5.12-.48C79.94,27,77.63,42.83,91.27,44.57c7.15.91,11.26-3.45,13.78-9.26A18.72,18.72,0,0,0,107,39.06c3.09,4.62,8.21,6.9,13.57,7.2C120.74,44.58,121,42.89,121.15,41.21Z"/><path id="_Compound_Path_2" data-name="&lt;Compound Path&gt;" class="cls-4" d="M104.07,59.15a2.48,2.48,0,0,0-.36-1.25l-4.42-.17A2.37,2.37,0,0,0,99,59c0,.37,0,.74,0,1.11-3.59-3.66-9.62-3.82-14.17-1.29-5.21,2.89-10.76,10.78-8,16.89,2.6,5.84,10.87,5.75,15.8,3.4a16.34,16.34,0,0,0,6.19-5.28A22.91,22.91,0,0,0,101.08,83l4.36-2.45C102.16,74.18,104.27,66,104.07,59.15ZM92.39,73.31c-2.64,2-8.39,3.83-10.48.34-3.56-6,9.82-16.4,14.1-9.27C96.88,67.8,95.15,71.2,92.39,73.31Z"/><path id="_Path_3" data-name="&lt;Path&gt;" class="cls-2" d="M133.31,61.64c-4.4-2.47-10.45-.3-14.71,3.26.05-1.34.09-2.67.15-4l-5.11,1q-.63,14.17-.33,28.37c1.68-.14,3.37-.24,5-.31q-.17-8.49,0-17a2.68,2.68,0,0,0,.49-.77c1.12-2.7,3.71-4.13,6.28-5.24,3.6-1.55,6.82-1.55,8.25,2.67,1.57,4.63.55,10.32.11,15.2l5,.32C139.18,77.6,141.13,66,133.31,61.64Z"/><path id="_Path_4" data-name="&lt;Path&gt;" class="cls-5" d="M52.39,78.28c-3.45-9.1,4.31-24,15.14-18.08a49.13,49.13,0,0,1,2.07-4.63c-13.77-7-26.26,9.14-22.6,22.52S68.07,98.67,79.53,89.81q-1.53-2-3.21-3.89C68.3,92.29,55.76,87.17,52.39,78.28Z"/><path id="_Compound_Path_3" data-name="&lt;Compound Path&gt;" class="cls-4" d="M55.19,44.13a41.09,41.09,0,0,0-11.27,1.75c.59-3.09,1.18-6.17,1.78-9.26,1-5.42,2.27-10.84,2.45-16.36l-5.52,0C40.55,27.48,35.43,34.82,28,37c-12.17,3.58-6.47-16.26-3.59-23.7l-4.89-1.43c-3.7,9.19-9.35,29.47,4.86,30.64C31.05,43.06,37,39,41.3,33.59c-.66,3.21-1.38,6.4-2,9.56q-.49,2.55-1,5.09A32.22,32.22,0,0,0,34.18,51c-3.64,2.8-7.08,6.42-8.61,10.84-1.22,3.51-1.19,8.58,2.08,11s7.11.58,9.4-2.07c3.43-4,4-9.91,4.93-14.83.28-1.47.57-2.93.85-4.4a31.75,31.75,0,0,1,12.43-2.37ZM36.84,56c-.66,3.44-1.06,7.49-3,10.52-.7,1.73-2,2.1-3.78,1.13a7,7,0,0,1,.08-3.76,13,13,0,0,1,2.17-4.12A24.79,24.79,0,0,1,37,55.1Z"/></g></g></g></g></svg>