<svg xmlns="http://www.w3.org/2000/svg" viewBox="0 0 123.69 105.79"><defs><style>.cls-1{fill:#f8451d;}.cls-2{fill:#fff;}.cls-3{fill:#f8b0c8;}</style></defs><title>symbol-07</title><g id="Layer_2" data-name="Layer 2"><g id="Objects"><g id="_Group_" data-name="&lt;Group&gt;"><path id="_Path_" data-name="&lt;Path&gt;" class="cls-1" d="M107.69,16.11a47.82,47.82,0,0,0-18.9-5.42c-8.18-.77-16,.92-24.13,1-4.59.05-7.27-.68-10.08-4.18-1.54-1.91-2.73-4.07-4.22-6C49-.26,46.55-.95,47,2.14c0,.06,0,.11,0,.17a1,1,0,0,0,0,.17C48.17,11,43.86,16.56,35.4,16.89c-6.63.26-13.66-1.06-20.1,1C9.69,19.74,5.44,24.16,3,29.42-.21,36.09-.37,43.62.36,50.84A101.85,101.85,0,0,0,5.3,74.92c4.64,13,14,23.64,27.86,26.41C41.4,103,50,103.21,58.37,103.94s16.75,1.87,25.13,1.85c6.82,0,13.81-1.18,19.51-5.18,4.85-3.41,8.31-8.38,10.81-13.68A104.11,104.11,0,0,0,123.68,47C124,34.4,119,22.45,107.69,16.11Z"/><g id="_Group_2" data-name="&lt;Group&gt;"><path id="_Path_2" data-name="&lt;Path&gt;" class="cls-2" d="M47.07,31.33q-2.72-.61-5.44-1.2-4.5,11.22-9.22,22.34Q25.3,42.6,18.31,32.64q-2.53,1.14-5,2.51,8.17,11.68,16.54,23.24-3.86,9-7.82,17.92l5.51,1.12Q37.66,54.71,47,31.65C47,31.54,47,31.43,47.07,31.33Z"/><path id="_Compound_Path_" data-name="&lt;Compound Path&gt;" class="cls-2" d="M45.38,48.56c-.24,1.77-.44,3.64-.55,5.52-.42,7.43.67,15.27,6.94,20a12.16,12.16,0,0,0,11,2.25c3.82-1.25,6.24-4.64,8.34-7.85a46.94,46.94,0,0,1-4.5-3.19l-.21.28c-1.27,2-2.69,4.37-4.92,5.34-2.55,1.11-5.41-.21-7.26-2-3.83-3.75-4.24-9.57-3.88-14.75l12.32.11,5.5,0a40.27,40.27,0,0,0,.22-5.53c-.21-6-2.18-11.76-8.77-13.28a11.65,11.65,0,0,0-9.71,2.26c-3.3,2.65-3.89,6.56-4.44,10.52C45.41,48.36,45.4,48.46,45.38,48.56Zm11.94-7.81c4.28.18,5.49,4,5.64,8l-12.11-.11C51.37,44.67,52.57,40.55,57.32,40.75Z"/><path id="_Path_3" data-name="&lt;Path&gt;" class="cls-2" d="M93.78,55.77c-1.5-3.05-4.28-5.15-7-7.05s-7-3.33-8.24-6.72a6.13,6.13,0,0,1,5.09-8.09c3.57-.52,6.37,1.76,7.59,4.85q2.61-.94,5.17-2a12.73,12.73,0,0,0-13.82-8.27,11.73,11.73,0,0,0-9.63,14.08C74.57,49.8,82.5,51.4,87.2,56.05c1.82,1.81,3.9,6.5,1.88,8.88-2.15,2.54-8.72,1-10.4-1.93q-2.28,1.44-4.5,3c2.81,4.6,9.09,6.52,14.58,5.14C95.68,69.39,96.56,61.39,93.78,55.77Z"/><path id="_Path_4" data-name="&lt;Path&gt;" class="cls-3" d="M38.52,82.91c0,1.84.06,3.68,0,5.53L78.91,87c0-1.84,0-3.69,0-5.53Z"/><path id="_Path_5" data-name="&lt;Path&gt;" class="cls-3" d="M103.56,41.91q-3.33,16.55-8.12,32.75c1.83.26,3.66.61,5.46,1q4.8-16.31,8.13-33C107.22,42.35,105.39,42.08,103.56,41.91Z"/><path id="_Path_6" data-name="&lt;Path&gt;" class="cls-3" d="M98.13,83.19,98,83.08c-2-1.5-4.91-.64-6.28,1.24-.24.34-.15.18.08,0a3.92,3.92,0,0,0-.65.89,4.76,4.76,0,0,0-.61,2.14,4,4,0,0,0,2.08,3.58,4.9,4.9,0,0,0,6.3-1.07,4.78,4.78,0,0,0-.37-6.32A2.41,2.41,0,0,0,98.13,83.19Z"/></g></g></g></g></svg>