<svg xmlns="http://www.w3.org/2000/svg" viewBox="0 0 119.12 112.28"><defs><style>.cls-1{fill:#fff;}.cls-2{fill:#3e2a93;}</style></defs><title>symbol-05</title><g id="Layer_2" data-name="Layer 2"><g id="Objects"><g id="_Group_" data-name="&lt;Group&gt;"><path id="_Path_" data-name="&lt;Path&gt;" class="cls-1" d="M117,40.42c-1.76-7.07-4.38-14.83-9.69-20.06C86.35-6.38,43.1-5.37,18.18,15.16,4.16,26.72-1.53,43.47.35,61.3,2.14,78.38,13,91.62,28.85,97.87c8.85,3.49,18.51,4.64,28,4.42A109.38,109.38,0,0,0,70,101.14c3.28-.48,7.25-.67,10.28-2.24a14.41,14.41,0,0,1,1.4,11.7,1.36,1.36,0,0,0,2.25,1.31C98.58,97.34,115.24,83.45,118.66,62,119.79,54.82,118.69,47.37,117,40.42Z"/><g id="_Group_2" data-name="&lt;Group&gt;"><path id="_Compound_Path_" data-name="&lt;Compound Path&gt;" class="cls-2" d="M33.19,53.47c-3.92-.25-7.13,2-9.83,7C22.53,62,21.68,63.59,21,65.29a117.85,117.85,0,0,1-.05-15.52,41.55,41.55,0,0,0,8.83-5.51c2.43-2,10.34-9.11,10.45-17.31,0-3-1.78-6.38-5.23-6.78-2.66-.31-5.44,1.13-8.49,4.4-4.25,4.57-6.81,11-8,20.31-.11.8-.21,1.64-.31,2.63-.86.38-1.74.82-2.59,1.25A26.58,26.58,0,0,1,9.85,51.1c-.95.22-1.25.83-1.14,1.33s.93,1.08,2,.84a54,54,0,0,0,7.12-2.19,191.71,191.71,0,0,0,.63,24.55A1.58,1.58,0,0,0,20,77.12a1.52,1.52,0,0,0,1.59-1,1.51,1.51,0,0,0,.5-1.23c-.2-3.92,1.31-7.49,3-10.77l.29-.57c1.48-2.94,3.16-6.26,6.56-6.78a3.36,3.36,0,0,1,3.14.89c1.43,1.55,1.47,4.78.88,7.29a34.12,34.12,0,0,1-4,9.65,1.63,1.63,0,0,0-.07,1.65,1.41,1.41,0,0,0,1.17.71h0a1.49,1.49,0,0,0,1.2-.79c2.26-3.85,5.07-8.65,5.24-13.93C39.65,58.07,37.75,53.77,33.19,53.47ZM21.28,46a47.48,47.48,0,0,1,3.13-12.15A23.29,23.29,0,0,1,29,26.53a10.94,10.94,0,0,1,4.15-3,3.28,3.28,0,0,1,.93-.17,2.29,2.29,0,0,1,1.52.48A4.06,4.06,0,0,1,37,27.21c-.28,6.81-7.23,13-9.35,14.68A38.42,38.42,0,0,1,21.28,46Z"/><path id="_Compound_Path_2" data-name="&lt;Compound Path&gt;" class="cls-2" d="M57.41,62.72C55,65.13,51,66.46,48.09,64.18a4.09,4.09,0,0,1-1-1.18c4.15-.37,6.89-1.53,8.36-3.54a4.44,4.44,0,0,0-.36-5.64c-1.67-1.68-4.77-1.45-6.94-.53A8.16,8.16,0,0,0,43.31,60a4.23,4.23,0,0,0-.57.19,1.81,1.81,0,0,1-.67.19,1.47,1.47,0,0,0-1.36.65,1.3,1.3,0,0,0,0,1.31,1.57,1.57,0,0,0,1.41.78c.47,0,1,0,1.52,0a7.07,7.07,0,0,0,1.89,3A7.64,7.64,0,0,0,51.2,68.4a12.38,12.38,0,0,0,8-3.92,1.36,1.36,0,0,0,.19-2A1.4,1.4,0,0,0,57.41,62.72Zm-6.48-4a15.07,15.07,0,0,1-4.36,1,4.78,4.78,0,0,1,3.11-3.66h0a5.85,5.85,0,0,1,1.65-.29,2.28,2.28,0,0,1,1.55.36c.08.08.32.31.12,1S51.71,58.41,50.93,58.74Z"/><path id="_Compound_Path_3" data-name="&lt;Compound Path&gt;" class="cls-2" d="M64.32,56.86A36.69,36.69,0,0,0,76.1,41.33c2.16-5.45,4.06-13,.81-18a5.71,5.71,0,0,0-5.26-2.94c-3.59.22-7.11,3.61-8.6,6.68C59.79,33.76,60,42.18,60.46,50.22a93.69,93.69,0,0,0,6,27.92,1.52,1.52,0,0,0,1.16,1,1.06,1.06,0,0,0,.25,0,1.32,1.32,0,0,0,1-.49,1.51,1.51,0,0,0,.18-1.55A89.36,89.36,0,0,1,64.32,56.86Zm7.25-33.29c2,0,2.91,1.67,3.36,3.1,1,3.1.24,6.74-.61,9.9A33.32,33.32,0,0,1,63.89,53.1l-.12-1.31A90.6,90.6,0,0,1,63.68,39c.25-3.79.69-8.14,2.88-11.71C67.4,25.94,69.19,23.62,71.57,23.57Z"/><path id="_Compound_Path_4" data-name="&lt;Compound Path&gt;" class="cls-2" d="M78.6,60a29.94,29.94,0,0,0,7.61-7.25c1.7-2.36,3.68-6,3.42-10.11a5.47,5.47,0,0,0-1.73-3.94,4.71,4.71,0,0,0-3.59-1c-2.47.27-4.53,2-6.29,5.34-2,3.66-2.43,7.85-2.66,11.83-.06,1.08-.07,2.21,0,3.35a32,32,0,0,1-8.55,3.5,1.46,1.46,0,0,0-1,.75,1.59,1.59,0,0,0-.1,1.1,1.62,1.62,0,0,0,2,1.23,35.26,35.26,0,0,0,7.92-3,26.08,26.08,0,0,0,6.58,14.83,1.56,1.56,0,0,0,1.18.57,1.13,1.13,0,0,0,.74-.3A1.44,1.44,0,0,0,84,74.79C80.86,71.44,79.1,66.59,78.6,60Zm2.56-6.27a29.07,29.07,0,0,1-2.68,2.37c0-7.39,1.6-12.27,4.62-14.51A2.81,2.81,0,0,1,84.66,41a1.8,1.8,0,0,1,.84.16,1.74,1.74,0,0,1,.93,1.6,10.15,10.15,0,0,1-.55,3.86A18.59,18.59,0,0,1,81.16,53.71Z"/><path id="_Compound_Path_5" data-name="&lt;Compound Path&gt;" class="cls-2" d="M107.63,53.23c-.52-.12-1.13.21-1.34,1.17h0c-.51,2.38-3,4.48-5.21,5.56-.8-3-2.64-5-5.1-5.5a4.72,4.72,0,0,0-4.06,1A10,10,0,0,0,86.84,60a9.64,9.64,0,0,0-.17,7.83A7.46,7.46,0,0,0,92.89,72a7.38,7.38,0,0,0,.94,0A7.71,7.71,0,0,0,100,68.8a10.1,10.1,0,0,0,1.54-5.54,11.6,11.6,0,0,0,7-8.1C108.73,54.08,108.22,53.35,107.63,53.23ZM98.3,64a5.85,5.85,0,0,1-3.54,4.77,4,4,0,0,1-4.55-1.34c-1.41-1.57-1.33-4.2-.53-6a4.88,4.88,0,0,1,1.08-1.49,6.09,6.09,0,0,0,3.79,3.52A9.33,9.33,0,0,0,98.3,64Zm-.51-3.21a5.51,5.51,0,0,1-3-.7,2,2,0,0,1-.87-1.28,1.2,1.2,0,0,1,.14-.83l.2-.09a1.69,1.69,0,0,0,.53-.33,1.55,1.55,0,0,1,.69.08c1.37.41,2.1,2.07,2.43,3.15Z"/></g></g></g></g></svg>