<svg xmlns="http://www.w3.org/2000/svg" viewBox="0 0 115.35 74.52"><defs><style>.cls-1{fill:#2b3590;}</style></defs><title>symbol-20</title><g id="Layer_2" data-name="Layer 2"><g id="OBJECTS"><path class="cls-1" d="M9,74.52c-2.16,0-3.09-1.31-2.78-3.17a13.23,13.23,0,0,0-.06-3.82C4.87,57.08,3.49,46.63,2.13,36.18c-.44-3.31-.84-6.62-1.28-9.92a4.34,4.34,0,0,0-.37-1.21C-.3,23.42-.24,23,1.53,22.48A75,75,0,0,1,9,20.73c3.71-.67,7.43-1.2,11.16-1.74a2.54,2.54,0,0,0,2.19-1.53C24.87,12.33,27.44,7.23,30,2.13c.1-.19.17-.39.27-.59C31.18-.29,32.59-.53,33.9,1,35.79,3.31,37.6,5.65,39.43,8c2.5,3.17,5,6.33,7.45,9.54a1.88,1.88,0,0,0,2.18.81c7.15-1.53,14.32-3,21.47-4.5Q83.87,11,97.18,8.14c.53-.11,1-.29,1.55-.43a2.09,2.09,0,0,1,2.55.85,5.13,5.13,0,0,1,.65,1.11q3.87,10,7.73,20c1.74,4.51,3.36,9.08,5.25,13.53.84,2,.34,3.68-.38,5.4a3,3,0,0,1-2.17,1.52c-2,.47-4,1-5.94,1.49Q96.7,53.93,87,56.19c-8.43,2-16.87,3.88-25.3,5.86-9.26,2.18-18.5,4.41-27.75,6.63l-23.2,5.56C10.09,74.39,9.45,74.45,9,74.52ZM97.36,11.93c-.54.09-1,.13-1.37.21-6,1.29-12.1,2.56-18.15,3.86Q63,19.2,48.2,22.45a2.88,2.88,0,0,1-3.35-1.16c-3.17-4.21-6.42-8.37-9.66-12.53-.83-1.08-1.71-2.12-2.7-3.35-.49.94-.86,1.65-1.21,2.37-2,4.27-4.12,8.52-6.09,12.82a3.08,3.08,0,0,1-2.5,2l-12.91,2-6.27,1C4.58,32.83,5.72,39.88,6.65,47,7.72,55.18,9.56,66.9,10.11,67.9c.65-1,.22-2.45,1.43-3.27,1.19,1.05-.38,2.15.16,3.11a2.27,2.27,0,0,0,2.57-2.26,6.06,6.06,0,0,1,.39-1.23c.15-.44.42-.86.92-.55.21.13.29.62.27.94,0,.65-.62,1.23-.35,2,1.93,0,3.27-.67,3.51-2.76A5.29,5.29,0,0,1,19.7,62c.12-.23.5-.31.76-.46.15.31.43.61.43.92a3.68,3.68,0,0,1-.39,1c-.2.58-.37,1.17-.58,1.83,3.27-.42,3.27-.42,4-3.19.08-.31.15-.63.24-.94a3.28,3.28,0,0,1,.37-1,.89.89,0,0,1,.77-.34.9.9,0,0,1,.43.72,4.89,4.89,0,0,1-.25,1.09c-.17.75-.33,1.51-.53,2.46a17.32,17.32,0,0,1,2-.52,2,2,0,0,0,2.05-2c.05-.57.2-1.18.9-1.32.59.21.58.62.49,1.07s-.12.81-.21,1.38c1.73-.49,3.26-1,4.81-1.35a1.47,1.47,0,0,0,1.11-1.22c.23-.83.49-1.65.77-2.46.16-.47.39-1,1-.8s.46.7.3,1.19a11.55,11.55,0,0,0-.69,2.57c1.12-.3,2-.63,3-.79,1.6-.26,2.67-1,2.82-2.71a3,3,0,0,1,.23-.6c.13-.39.34-.78.78-.54a1.13,1.13,0,0,1,.37.89,13.77,13.77,0,0,1-.47,1.92c2-.55,3.68-1,5.35-1.54a1.77,1.77,0,0,0,.79-1.08c.39-1.23.66-2.49,1-3.74.15-.59.3-1.2,1.29-.95.3,1.73-.83,3.32-.8,5.19,1.28-.36,2.4-.7,3.54-1a1.22,1.22,0,0,0,.92-1c.29-1,.59-2,.91-2.93a6.18,6.18,0,0,1,.59-1.31.73.73,0,0,1,.67-.23.8.8,0,0,1,.46.58,2.58,2.58,0,0,1-.22.92c-.31,1-.62,2-1,3.31l44.63-12.41C100.59,32.28,99,22.15,97.36,11.93Z"/><path class="cls-1" d="M50.34,15.07c-.84,0-1.4-.34-1.48-1a1.19,1.19,0,0,1,1.08-1.37c1.68-.34,3.38-.61,5.07-.93q15.92-3,31.67-6.71c2.3-.54,4.64-.91,7-1.28A2.94,2.94,0,0,1,95.35,4a1.31,1.31,0,0,1,.59,1.14A1.37,1.37,0,0,1,95,6C89.38,6.48,84,8.1,78.55,9.21,71,10.76,63.4,12.35,55.83,13.92l-4.73,1Z"/><path class="cls-1" d="M4.21,17.84c-.31,0-.58.08-.73,0-.34-.21-.77-.44-.89-.77A.85.85,0,0,1,3.27,16a15.21,15.21,0,0,1,1.9-.38c3.56-.57,7.11-1.19,10.68-1.65a2.93,2.93,0,0,0,2.43-1.74c1.88-3.39,3.85-6.72,5.81-10.07a4.31,4.31,0,0,1,1-1.25,1.14,1.14,0,0,1,1-.06.94.94,0,0,1,.35.81A3.26,3.26,0,0,1,26,2.81c-2.16,3.85-4.37,7.67-6.49,11.54a3.1,3.1,0,0,1-2.5,1.5c-3.4.56-6.8,1.07-10.21,1.6Z"/><path class="cls-1" d="M27.49,51.14l-7.42,2c-.26,2-.48,4.17-.81,6.28a4.26,4.26,0,0,1-.84,2,2.13,2.13,0,0,1-3.64-.77,4.7,4.7,0,0,1-.2-1.9c.37-3.91.76-7.81,1.21-11.71.58-5,1.23-10,1.84-15a5.14,5.14,0,0,1,.12-.8,3.62,3.62,0,0,1,2.52-2.7,3,3,0,0,1,3.13,1.26A11.36,11.36,0,0,1,25,32.34c1.78,3.91,3.55,7.84,5.21,11.8,1.5,3.57,2.87,7.19,4.25,10.8a2.33,2.33,0,1,1-4.25,1.87C29.5,55.19,28.75,53.59,28,52,27.88,51.74,27.72,51.53,27.49,51.14Zm-1.81-4.27A69.15,69.15,0,0,0,22,39.18c-.38,2.89-.76,5.78-1.18,8.9Z"/><path class="cls-1" d="M42.5,39.19c.91,1,1.85,1.94,2.74,2.94a10.76,10.76,0,0,1,2.87,7.49,5.66,5.66,0,0,1-4.65,5.63c-3.24.5-5.7-.58-7-3.56a8.19,8.19,0,0,1-.67-2.3A2.16,2.16,0,0,1,37.28,47a2.19,2.19,0,0,1,2.54.93,8.07,8.07,0,0,1,.72,1.44c.42.89,1,1.24,1.74,1s.66-1,.55-1.66a5.29,5.29,0,0,0-1.55-3.12c-1.56-1.4-3.18-2.73-4.72-4.15a12.34,12.34,0,0,1-3.79-12.62c1.12-4.81,6.21-6,9.51-2.89a11.64,11.64,0,0,1,3.37,6.3,10.78,10.78,0,0,1,.23,4.63C45.39,38.94,44.63,39.51,42.5,39.19Zm-.92-.57c0-.87,0-1.71,0-2.54a10.08,10.08,0,0,0-.93-4.84,3.58,3.58,0,0,0-2.37-2.15C36.33,31.83,38.12,36.73,41.58,38.62Z"/><path class="cls-1" d="M76.91,24.8c.35,1.24.69,2.41,1,3.65,1.82-.39,3.54-.77,5.27-1.13a2.17,2.17,0,0,1,2.28.85,2,2,0,0,1,.12,2.41A4.37,4.37,0,0,1,83.75,32c-1.38.58-2.83,1-4.36,1.49a37.61,37.61,0,0,0,1.87,7,2.31,2.31,0,0,1-4,2.3,5.31,5.31,0,0,1-.73-1.42c-.53-1.41-1-2.83-1.5-4.25a71.46,71.46,0,0,1-3.28-12.44c-.36-2.4,0-3.2,2.31-4.12,1.74-.71,3.52-1.3,5.3-1.91s3.88-1.25,5.82-1.88a2.3,2.3,0,0,1,2.69.81,2,2,0,0,1-.31,2.65,8.61,8.61,0,0,1-2.46,1.46c-2.29.93-4.62,1.76-6.93,2.63Z"/><path class="cls-1" d="M61.77,22.41A2.43,2.43,0,0,1,64,23.87a34.85,34.85,0,0,1,1.43,3.93,144.22,144.22,0,0,1,2.9,15c.16,1,.38,1.89.55,2.84a2.44,2.44,0,0,1-1.53,3,2.54,2.54,0,0,1-3.15-1.53,20,20,0,0,1-1-3.4q-1.66-8-3.24-15.95a16.24,16.24,0,0,1-.44-3.17A2.17,2.17,0,0,1,61.77,22.41Z"/><path class="cls-1" d="M95.16,31.14a1.78,1.78,0,0,1-1.11,1.94,1.84,1.84,0,0,1-2.32-.52A4.23,4.23,0,0,1,91,30.68c-.46-3.78-.84-7.57-1.24-11.35-.1-.9-.21-1.81-.28-2.72a2,2,0,0,1,1.47-2.35,1.9,1.9,0,0,1,2.38,1.58,19.76,19.76,0,0,1,.69,3.3C94.42,23.14,94.77,27.14,95.16,31.14Z"/><path class="cls-1" d="M95.52,40.07A2.43,2.43,0,0,1,90.67,40a2.58,2.58,0,0,1,2.47-2.46A2.47,2.47,0,0,1,95.52,40.07Z"/></g></g></svg>