<svg xmlns="http://www.w3.org/2000/svg" viewBox="0 0 68.29 145.73"><defs><style>.cls-1{fill:#f9ec7a;}.cls-2{fill:#2b3590;}</style></defs><title>symbol-10</title><g id="Layer_2" data-name="Layer 2"><g id="OBJECTS"><path class="cls-1" d="M29.7,94.83a19.35,19.35,0,0,0,4.16,5.65c.92.83,1.71,1.2,2.83.67a3.13,3.13,0,0,0,1.18-.72,34.43,34.43,0,0,0,2.79-3.92A215.56,215.56,0,0,0,52.89,70.38a255.73,255.73,0,0,0,8.7-25.29c1.11-3.87,2.16-7.77,3.09-11.69a48.23,48.23,0,0,0,1.41-13.6,11,11,0,0,0-2-5.87,8.5,8.5,0,0,0-3.68-3,13.09,13.09,0,0,0-5.68-.84,16,16,0,0,0-8.79,2.73,38.74,38.74,0,0,0-6.74,6,44.35,44.35,0,0,0-8.67,14.05,91.92,91.92,0,0,0-5.84,21.9,93.81,93.81,0,0,0-.51,15.63c.07,1.74.25,3.47.4,5.6.87-1.27,1.46-2.21,2.15-3.07a1.21,1.21,0,0,1,1.06-.34c.49.27.21.71,0,1.09-.66,1-1.29,2-1.92,3A3.77,3.77,0,0,0,25,79.81a34.27,34.27,0,0,0,.72,3.54c.25-.4.36-.57.46-.75.86-1.43,1.69-2.87,2.59-4.27a4.05,4.05,0,0,1,1-1,.59.59,0,0,1,.58,0,1.06,1.06,0,0,1,.22.71c0,.18-.22.35-.33.53-1.31,2.22-2.63,4.42-3.89,6.67a1.92,1.92,0,0,0-.1,1.36,26,26,0,0,0,1,2.59c.39-.78.61-1.32.91-1.81.83-1.32,1.63-2.65,2.55-3.9.55-.76.85-.69,1.74,0a25.09,25.09,0,0,0-3.94,6.2,2.86,2.86,0,0,0,.39,3.35l.87-1.43c.85-1.37,1.62-2.81,2.58-4.1a16.35,16.35,0,0,1,2.5-2.49A1.16,1.16,0,0,1,36,85c.47.37.1.72-.26,1C32.92,88.39,31.44,91.64,29.7,94.83Z"/><path class="cls-1" d="M34.09,133.78a3.85,3.85,0,0,0,3.6.24,6.55,6.55,0,0,0,2.91-2.22,10.56,10.56,0,0,0,1.68-9,9.78,9.78,0,0,0-1.63-3.45c-1.15-1.54-2.8-2.53-4.78-1.93a7.88,7.88,0,0,0-5.17,4.82,3.11,3.11,0,0,0,.44-.21c.41-.37.91-.55,1.25-.07.14.2-.11.76-.31,1.08a13,13,0,0,1-1.3,1.84c-1.07,1.22-.9,2.5-.29,4,.46-.69.79-1.29,1.22-1.81s.71-1,1.31-.47.14.85-.13,1.28c-.61,1-1.16,2-1.77,3.12l1.72,2.11c.39-.71.67-1.19.94-1.68.44-.79.84-1.62,1.35-2.37.15-.23.62-.24.95-.36a3.55,3.55,0,0,1,.2,1.13,3.6,3.6,0,0,1-.54,1Z"/><path class="cls-2" d="M68.29,20.55c-.45,3.24-.79,6.49-1.36,9.7-1.57,8.87-4.35,17.41-7.27,25.9-2,5.93-4.18,11.85-6.49,17.68A202.23,202.23,0,0,1,42.46,96.75a21.59,21.59,0,0,1-6.67,7.76,8.64,8.64,0,0,1-8.15.77c-3.16-1.12-5.49-3.43-7.59-6C17,95.41,15.13,91,13.22,86.53A55,55,0,0,1,9.49,70.61c-.34-3-.65-6-.83-9a33.3,33.3,0,0,1,.13-5.47c.53-5.29,1.14-10.57,1.79-15.84a35.21,35.21,0,0,1,.86-3.76A77.59,77.59,0,0,1,16,24a53,53,0,0,1,6.27-10.49A36.88,36.88,0,0,1,29.37,6.6a30,30,0,0,1,10-5.39C46.09-.75,52.68-.52,58.8,3.3A20.14,20.14,0,0,1,67,12.59C68.05,15.14,68.13,17.82,68.29,20.55ZM27.09,92.82a19.48,19.48,0,0,0,4.16,5.65c.92.82,1.71,1.19,2.82.67a3,3,0,0,0,1.18-.72,33.42,33.42,0,0,0,2.8-3.93A214.85,214.85,0,0,0,50.28,68.36,256.38,256.38,0,0,0,59,43.08c1.12-3.88,2.16-7.77,3.09-11.69a48,48,0,0,0,1.41-13.61,11,11,0,0,0-2-5.86,8.49,8.49,0,0,0-3.69-3,13.16,13.16,0,0,0-5.67-.83,15.9,15.9,0,0,0-8.79,2.73,38.33,38.33,0,0,0-6.74,6,44.39,44.39,0,0,0-8.67,14.05A92,92,0,0,0,22,52.75a92.75,92.75,0,0,0-.51,15.63c.07,1.73.24,3.47.4,5.59.87-1.26,1.46-2.21,2.15-3.07a1.15,1.15,0,0,1,1.05-.33c.5.26.22.7,0,1.09-.66,1-1.29,2-1.92,3s-1.19,1.88-.84,3.14a30.76,30.76,0,0,0,.71,3.54c.25-.39.37-.56.47-.74.86-1.43,1.69-2.87,2.58-4.28a4.06,4.06,0,0,1,1-1,.6.6,0,0,1,.58,0,1.08,1.08,0,0,1,.22.7c0,.19-.22.36-.33.54C26.31,78.81,25,81,23.73,83.26a2,2,0,0,0-.11,1.36,26.32,26.32,0,0,0,1,2.59c.39-.78.61-1.32.91-1.81.82-1.32,1.62-2.66,2.54-3.91.56-.75.85-.68,1.74,0a25.05,25.05,0,0,0-3.93,6.2,2.82,2.82,0,0,0,.39,3.34c.33-.54.59-1,.87-1.43.85-1.37,1.61-2.8,2.57-4.09a16.89,16.89,0,0,1,2.51-2.49A1.16,1.16,0,0,1,33.37,83c.47.36.1.72-.26,1C30.31,86.38,28.82,89.63,27.09,92.82Z"/><path class="cls-2" d="M31.38,109.06c4.17-.14,7.26,2,10.11,4.49a10.78,10.78,0,0,1,3.23,6.55,15.36,15.36,0,0,1-4.52,14.44,29,29,0,0,1-4.76,4.08,7,7,0,0,1-4.09,1.26c-3.11-.14-6.09-.68-8.5-2.89-.72-.65-1.47-1.27-2.16-2a12.31,12.31,0,0,1-3.62-10.41A21.19,21.19,0,0,1,19,117.17C21,112.82,25.79,108.62,31.38,109.06Zm.1,22.7a3.82,3.82,0,0,0,3.6.25,6.47,6.47,0,0,0,2.9-2.23,10.56,10.56,0,0,0,1.69-9A10,10,0,0,0,38,117.29c-1.15-1.53-2.79-2.53-4.77-1.92a7.88,7.88,0,0,0-5.18,4.81,2,2,0,0,0,.44-.21c.41-.36.92-.54,1.25-.06.14.2-.11.75-.3,1.07a12.69,12.69,0,0,1-1.3,1.84c-1.07,1.22-.91,2.5-.29,4.05.46-.7.79-1.29,1.21-1.81s.72-1,1.31-.47.14.85-.12,1.28c-.61,1-1.16,2-1.77,3.12l1.72,2.1c.39-.7.67-1.18.94-1.67a26.33,26.33,0,0,1,1.35-2.37c.15-.23.62-.25.95-.36a3.84,3.84,0,0,1,.2,1.12,3.44,3.44,0,0,1-.55,1C32.6,129.72,32.09,130.66,31.48,131.76Z"/><path class="cls-2" d="M0,62.36A100.19,100.19,0,0,1,11.38,16.08,52,52,0,0,1,21.83,2.63,15.78,15.78,0,0,1,24.3.83a4.9,4.9,0,0,1,1.48-.6c.85-.18,1.46.11,1.59.7.16.75-.38.94-.92,1.27a19.12,19.12,0,0,0-3.39,2.42,46.56,46.56,0,0,0-10.21,14A114.2,114.2,0,0,0,7.94,30.37,94.77,94.77,0,0,0,3.77,48.91,105.18,105.18,0,0,0,3.08,67.6,71.44,71.44,0,0,0,10,95.12a39.93,39.93,0,0,0,9.25,11.52c.31.29.75.53.91.89a1.59,1.59,0,0,1,0,1.3,1.59,1.59,0,0,1-1.25.39,2.46,2.46,0,0,1-1.11-.61A37.88,37.88,0,0,1,4.93,90.83,79.87,79.87,0,0,1,.59,72.18C.28,68.92.19,65.63,0,62.36Z"/><path class="cls-2" d="M10.26,125.84a31.72,31.72,0,0,1,1.48-9,18.92,18.92,0,0,1,1.27-2.6,1,1,0,0,1,1.35-.51c.59.31.57.88.32,1.41a23.55,23.55,0,0,0-1.86,11A20.23,20.23,0,0,0,18.67,140a10.13,10.13,0,0,0,4.83,2.79,6.86,6.86,0,0,1,.77.24c1.19.41,1.63,1,1.43,1.79s-.8,1-2,.87a11.15,11.15,0,0,1-5.7-2.45,19.71,19.71,0,0,1-5.08-6.59A26.49,26.49,0,0,1,10.26,125.84Z"/><path class="cls-2" d="M58.52,22a62.48,62.48,0,0,1-2.31,13.62c-1.3,5.11-2.66,10.2-4,15.3A4.8,4.8,0,0,1,51.91,52a.91.91,0,0,1-1.66.16,3.75,3.75,0,0,1-.8-2.7c.42-2.27.82-4.56,1-6.85a68.44,68.44,0,0,0,.38-8.22c-.14-4.94-.5-9.89-.77-14.83,0-.8-.11-1.61-.09-2.42a3.67,3.67,0,0,1,2.5-3.58,3.76,3.76,0,0,1,4.11,1.54,8.69,8.69,0,0,1,1.67,4C58.46,20.18,58.47,21.32,58.52,22Z"/><path class="cls-2" d="M68.29,20.55c-.45,3.24-.79,6.49-1.36,9.7-1.57,8.87-4.35,17.41-7.27,25.9-2,5.93-4.18,11.85-6.49,17.68A202.23,202.23,0,0,1,42.46,96.75a21.59,21.59,0,0,1-6.67,7.76,8.64,8.64,0,0,1-8.15.77c-3.16-1.12-5.49-3.43-7.59-6C17,95.41,15.13,91,13.22,86.53A55,55,0,0,1,9.49,70.61c-.34-3-.65-6-.83-9a33.3,33.3,0,0,1,.13-5.47c.53-5.29,1.14-10.57,1.79-15.84a35.21,35.21,0,0,1,.86-3.76A77.59,77.59,0,0,1,16,24a53,53,0,0,1,6.27-10.49A36.88,36.88,0,0,1,29.37,6.6a30,30,0,0,1,10-5.39C46.09-.75,52.68-.52,58.8,3.3A20.14,20.14,0,0,1,67,12.59C68.05,15.14,68.13,17.82,68.29,20.55ZM27.09,92.82a19.48,19.48,0,0,0,4.16,5.65c.92.82,1.71,1.19,2.82.67a3,3,0,0,0,1.18-.72,33.42,33.42,0,0,0,2.8-3.93A214.85,214.85,0,0,0,50.28,68.36,256.38,256.38,0,0,0,59,43.08c1.12-3.88,2.16-7.77,3.09-11.69a48,48,0,0,0,1.41-13.61,11,11,0,0,0-2-5.86,8.49,8.49,0,0,0-3.69-3,13.16,13.16,0,0,0-5.67-.83,15.9,15.9,0,0,0-8.79,2.73,38.33,38.33,0,0,0-6.74,6,44.39,44.39,0,0,0-8.67,14.05A92,92,0,0,0,22,52.75a92.75,92.75,0,0,0-.51,15.63c.07,1.73.24,3.47.4,5.59.87-1.26,1.46-2.21,2.15-3.07a1.15,1.15,0,0,1,1.05-.33c.5.26.22.7,0,1.09-.66,1-1.29,2-1.92,3s-1.19,1.88-.84,3.14a30.76,30.76,0,0,0,.71,3.54c.25-.39.37-.56.47-.74.86-1.43,1.69-2.87,2.58-4.28a4.06,4.06,0,0,1,1-1,.6.6,0,0,1,.58,0,1.08,1.08,0,0,1,.22.7c0,.19-.22.36-.33.54C26.31,78.81,25,81,23.73,83.26a2,2,0,0,0-.11,1.36,26.32,26.32,0,0,0,1,2.59c.39-.78.61-1.32.91-1.81.82-1.32,1.62-2.66,2.54-3.91.56-.75.85-.68,1.74,0a25.05,25.05,0,0,0-3.93,6.2,2.82,2.82,0,0,0,.39,3.34c.33-.54.59-1,.87-1.43.85-1.37,1.61-2.8,2.57-4.09a16.89,16.89,0,0,1,2.51-2.49A1.16,1.16,0,0,1,33.37,83c.47.36.1.72-.26,1C30.31,86.38,28.82,89.63,27.09,92.82Z"/><path class="cls-2" d="M31.38,109.06c4.17-.14,7.26,2,10.11,4.49a10.78,10.78,0,0,1,3.23,6.55,15.36,15.36,0,0,1-4.52,14.44,29,29,0,0,1-4.76,4.08,7,7,0,0,1-4.09,1.26c-3.11-.14-6.09-.68-8.5-2.89-.72-.65-1.47-1.27-2.16-2a12.31,12.31,0,0,1-3.62-10.41A21.19,21.19,0,0,1,19,117.17C21,112.82,25.79,108.62,31.38,109.06Zm.1,22.7a3.82,3.82,0,0,0,3.6.25,6.47,6.47,0,0,0,2.9-2.23,10.56,10.56,0,0,0,1.69-9A10,10,0,0,0,38,117.29c-1.15-1.53-2.79-2.53-4.77-1.92a7.88,7.88,0,0,0-5.18,4.81,2,2,0,0,0,.44-.21c.41-.36.92-.54,1.25-.06.14.2-.11.75-.3,1.07a12.69,12.69,0,0,1-1.3,1.84c-1.07,1.22-.91,2.5-.29,4.05.46-.7.79-1.29,1.21-1.81s.72-1,1.31-.47.14.85-.12,1.28c-.61,1-1.16,2-1.77,3.12l1.72,2.1c.39-.7.67-1.18.94-1.67a26.33,26.33,0,0,1,1.35-2.37c.15-.23.62-.25.95-.36a3.84,3.84,0,0,1,.2,1.12,3.44,3.44,0,0,1-.55,1C32.6,129.72,32.09,130.66,31.48,131.76Z"/><path class="cls-2" d="M0,62.36A100.19,100.19,0,0,1,11.38,16.08,52,52,0,0,1,21.83,2.63,15.78,15.78,0,0,1,24.3.83a4.9,4.9,0,0,1,1.48-.6c.85-.18,1.46.11,1.59.7.16.75-.38.94-.92,1.27a19.12,19.12,0,0,0-3.39,2.42,46.56,46.56,0,0,0-10.21,14A114.2,114.2,0,0,0,7.94,30.37,94.77,94.77,0,0,0,3.77,48.91,105.18,105.18,0,0,0,3.08,67.6,71.44,71.44,0,0,0,10,95.12a39.93,39.93,0,0,0,9.25,11.52c.31.29.75.53.91.89a1.59,1.59,0,0,1,0,1.3,1.59,1.59,0,0,1-1.25.39,2.46,2.46,0,0,1-1.11-.61A37.88,37.88,0,0,1,4.93,90.83,79.87,79.87,0,0,1,.59,72.18C.28,68.92.19,65.63,0,62.36Z"/><path class="cls-2" d="M10.26,125.84a31.72,31.72,0,0,1,1.48-9,18.92,18.92,0,0,1,1.27-2.6,1,1,0,0,1,1.35-.51c.59.31.57.88.32,1.41a23.55,23.55,0,0,0-1.86,11A20.23,20.23,0,0,0,18.67,140a10.13,10.13,0,0,0,4.83,2.79,6.86,6.86,0,0,1,.77.24c1.19.41,1.63,1,1.43,1.79s-.8,1-2,.87a11.15,11.15,0,0,1-5.7-2.45,19.71,19.71,0,0,1-5.08-6.59A26.49,26.49,0,0,1,10.26,125.84Z"/><path class="cls-2" d="M58.52,22a62.48,62.48,0,0,1-2.31,13.62c-1.3,5.11-2.66,10.2-4,15.3A4.8,4.8,0,0,1,51.91,52a.91.91,0,0,1-1.66.16,3.75,3.75,0,0,1-.8-2.7c.42-2.27.82-4.56,1-6.85a68.44,68.44,0,0,0,.38-8.22c-.14-4.94-.5-9.89-.77-14.83,0-.8-.11-1.61-.09-2.42a3.67,3.67,0,0,1,2.5-3.58,3.76,3.76,0,0,1,4.11,1.54,8.69,8.69,0,0,1,1.67,4C58.46,20.18,58.47,21.32,58.52,22Z"/></g></g></svg>