<svg xmlns="http://www.w3.org/2000/svg" viewBox="0 0 90.02 103.08"><defs><style>.cls-1{fill:#f7b033;}.cls-2{fill:#2b3590;}</style></defs><title>symbol-12</title><g id="Layer_2" data-name="Layer 2"><g id="OBJECTS"><path class="cls-1" d="M47.75,5.16A18,18,0,0,0,42,7.21a3,3,0,0,0-1.72,2.58,38.92,38.92,0,0,0,0,4.83c.31,3.31.77,6.61,1.15,9.92.46,3.95.9,7.9,1.35,11.84.62,5.45,1.29,10.89,1.87,16.35.6,5.61,1.13,11.23,1.67,16.86a2,2,0,0,0,.8,1.66A3,3,0,0,0,51.64,70a7.21,7.21,0,0,0,.51-3c-.28-8.22-.58-16.43-1-24.65-.35-7.3-.77-14.6-1.31-21.89-.32-4.28-.91-8.55-1.43-12.82A17.77,17.77,0,0,0,47.75,5.16Z"/><path class="cls-1" d="M15.86,9.62a27.46,27.46,0,0,0-6.39,2.86,3.55,3.55,0,0,0-1.78,3.7c.24,1.65.48,3.3.86,4.92.72,3,1.57,5.92,2.31,8.89,2.15,8.66,4.26,17.33,6.39,26l3.6,14.55c.41,1.65.82,3.3,1.27,5.16,1.08-.58,2-1,2.86-1.55a2.47,2.47,0,0,0,1.15-2.63c-.45-3.09-.82-6.18-1.29-9.26C24,56.51,23,50.79,22.13,45.05,21,37.35,20,29.63,18.79,21.93c-.51-3.34-1.28-6.64-2-9.95A14.61,14.61,0,0,0,15.86,9.62Z"/><path class="cls-1" d="M70.05,71.35c2.14.45,4,1.3,6,1.25,1.25,0,1.31-.07,1.62-1.31.23-.94.47-1.88.62-2.84q1.59-9.78,3.12-19.58c1-6.53,2-13.07,3-19.6a88.52,88.52,0,0,0,1.23-14.44c0-3.6-.89-4.63-4.42-5.33l-.16,0c-2-.36-2.58-.06-3,1.92-.67,3.37-1.31,6.75-1.76,10.16C75.79,25.76,75.48,30,75,34.22c-.73,6.68-1.46,13.36-2.26,20-.47,3.9-1,7.78-1.63,11.66C70.86,67.66,70.44,69.38,70.05,71.35Z"/><path class="cls-2" d="M57.1,62.44c-.12,2.35-.1,4.73-.39,7.06-.57,4.7-6.22,8.59-10.88,7.6a14.2,14.2,0,0,0-2.25-.24,4.31,4.31,0,0,1-3.69-2.48,16.21,16.21,0,0,1-1.83-5.62c-.52-3.24-1.18-6.45-1.62-9.7q-1.08-8.14-1.95-16.31c-.71-6.9-1.3-13.8-1.93-20.7-.35-4-.76-7.92-.15-11.91a8.29,8.29,0,0,1,3.87-5.86A26.72,26.72,0,0,1,45.67.2c3.25-.68,5.37.31,6.4,3.49a25.51,25.51,0,0,1,1,4.4c.49,3.73,1,7.46,1.26,11.21.51,6.32.9,12.65,1.3,19,.45,7,.85,14,1.25,20.93.06,1.08,0,2.15,0,3.23ZM47.41,4.53A18,18,0,0,0,41.7,6.58,3,3,0,0,0,40,9.16,36.92,36.92,0,0,0,40,14c.31,3.32.77,6.62,1.15,9.93.46,3.95.89,7.89,1.34,11.84.63,5.45,1.29,10.89,1.88,16.35S45.47,63.33,46,69a2,2,0,0,0,.8,1.67,3,3,0,0,0,4.5-1.26,7.58,7.58,0,0,0,.51-3c-.29-8.22-.59-16.44-1-24.65-.36-7.3-.77-14.6-1.32-21.89C49.2,15.55,48.6,11.29,48.08,7A17.41,17.41,0,0,0,47.41,4.53Z"/><path class="cls-2" d="M.05,16.68c-.28-3,.67-5.27,3.52-6.6A14.3,14.3,0,0,0,5.7,8.63a24.78,24.78,0,0,1,8.51-3.75A4.21,4.21,0,0,1,19.4,7.13a15,15,0,0,1,1.66,4.16Q22.62,18.63,23.92,26c.68,3.92,1.16,7.88,1.76,11.81Q26.91,46,28.19,54.24c.58,3.67,1.29,7.31,1.81,11,.32,2.22.41,4.48.59,6.72a5.69,5.69,0,0,1-2.16,4.83,27,27,0,0,1-4.1,2.81,3.26,3.26,0,0,1-2.65.38,2,2,0,0,0-.93,0,3.52,3.52,0,0,1-3.83-1.47A20.72,20.72,0,0,1,14.41,74c-1-2.76-1.75-5.63-2.59-8.46-1.29-4.33-2.65-8.64-3.82-13C6.78,48,5.74,43.46,4.64,38.92c-.79-3.24-1.51-6.49-2.34-9.72A73.06,73.06,0,0,1,.05,16.68ZM15.53,9a27.13,27.13,0,0,0-6.4,2.86,3.55,3.55,0,0,0-1.77,3.7c.24,1.64.47,3.3.86,4.92.71,3,1.57,5.92,2.31,8.89q3.21,13,6.39,26,1.78,7.27,3.6,14.54c.41,1.66.81,3.31,1.27,5.16,1.08-.57,2-1,2.86-1.54a2.5,2.5,0,0,0,1.15-2.64c-.45-3.08-.82-6.17-1.29-9.25-.88-5.74-1.86-11.46-2.71-17.2C20.66,36.72,19.64,29,18.46,21.3c-.51-3.34-1.28-6.65-2-10A15.82,15.82,0,0,0,15.53,9Z"/><path class="cls-2" d="M90,17.85A133.62,133.62,0,0,1,87.8,38.2c-1.64,10.08-3.4,20.14-5.13,30.21a40.76,40.76,0,0,1-.89,4.26,5.42,5.42,0,0,1-4.54,4c-2.64.53-5.11-.26-7.62-.83a9.06,9.06,0,0,1-4.44-2.46,6,6,0,0,1-2.07-4.57c.09-2.15.26-4.3.54-6.43.33-2.55.85-5.07,1.2-7.62s.55-5,.84-7.5c.43-3.73.85-7.47,1.34-11.19.58-4.43,1.16-8.86,1.86-13.26.65-4.09,1.4-8.16,2.22-12.22a14.69,14.69,0,0,1,1.38-3.91A5.21,5.21,0,0,1,77,3.79a16.12,16.12,0,0,1,9.11,2.29,7.2,7.2,0,0,1,3.61,5.65C89.92,13.76,89.93,15.8,90,17.85ZM69.71,70.72c2.15.45,4,1.3,6,1.25,1.24,0,1.31-.07,1.62-1.31.23-.94.47-1.89.62-2.84Q79.54,58,81.08,48.24c1-6.53,2-13.07,3-19.6A88.53,88.53,0,0,0,85.31,14.2c0-3.61-.9-4.63-4.43-5.34l-.15,0c-2-.35-2.58-.05-3,1.93-.67,3.37-1.31,6.75-1.75,10.16-.55,4.21-.85,8.45-1.31,12.67-.73,6.68-1.46,13.36-2.26,20-.47,3.9-1.05,7.78-1.64,11.66C70.53,67,70.11,68.74,69.71,70.72Z"/><path class="cls-2" d="M70.16,82.4c5.1-.11,8,3.14,9.26,7.74,1,3.6-.26,6.63-2.71,9.26-.26.27-.53.54-.76.83a7.18,7.18,0,0,1-6.68,2.8,10.37,10.37,0,0,1-6.87-3.19,9.21,9.21,0,0,1-1.84-3.16,11.69,11.69,0,0,1,.88-9.22C63.2,83.93,66.15,82.29,70.16,82.4ZM67,90.77a5.68,5.68,0,0,0,2.47,4.7,2.12,2.12,0,0,0,2.94-.11,4,4,0,0,0,1.44-3.91,4.29,4.29,0,0,0-2.66-3.57A2.93,2.93,0,0,0,67,90.77Z"/><path class="cls-2" d="M26.49,101.77a8,8,0,0,1-5.22-1.7,5.4,5.4,0,0,1-1.8-2.21,11.51,11.51,0,0,1,1.82-12.51,5.38,5.38,0,0,1,3.84-2.13c.53,0,1.06-.13,1.59-.2,3.67-.49,6.27,1.13,8,4.22a11,11,0,0,1-1.28,12.05,8.22,8.22,0,0,1-5.45,2.4C27.55,101.74,27.12,101.74,26.49,101.77Zm4.22-9.54a6.48,6.48,0,0,0-1-3.11,2.32,2.32,0,0,0-2.28-1.24,2.43,2.43,0,0,0-2,1.7,5.71,5.71,0,0,0,.88,5.63,2,2,0,0,0,3.46-.29A16.14,16.14,0,0,0,30.71,92.23Z"/><path class="cls-2" d="M41.25,92.53a14.3,14.3,0,0,1,2.32-7A6,6,0,0,1,48,82.61a15,15,0,0,1,4,0c2.26.39,3.54,2.15,4.56,4,2.11,3.83.85,9.93-2.86,12.43a16.46,16.46,0,0,1-2.25,1.52c-3.32,1.5-7.69-.38-9.19-4A28.08,28.08,0,0,1,41.25,92.53Zm6-1.5a19.91,19.91,0,0,0,1,2.69,1.72,1.72,0,0,0,3,.3,4.79,4.79,0,0,0,0-5.79,2,2,0,0,0-3.47.57A17.24,17.24,0,0,0,47.22,91Z"/><path class="cls-2" d="M47.6,64.57c-.41-6.6-.84-13.2-1.24-19.8q-.7-11.49-1.38-23c-.19-3.12-.4-6.23-.59-9.34a4.64,4.64,0,0,1,0-1.29c.05-.26.33-.47.51-.71a5.14,5.14,0,0,1,.66.74,1.45,1.45,0,0,1,.07.64q.47,7.08.92,14.16c.27,3.91.61,7.83.8,11.75.34,6.78,1,13.55,1.28,20.34.1,2.52.39,5,.59,7.54.09,1.17-.12,1.64-.74,1.66s-.88-.39-.86-1.56c0-.38,0-.76,0-1.13Z"/><path class="cls-2" d="M12.29,14.92c.35,1.41.69,2.7,1,4q2.12,9.93,4.19,19.88Q20.2,52,23,65.13c.21,1,.48,2,.72,3,.07.32.25.68.15.94s-.43.83-.74.9-.76-.24-1-.52a2.44,2.44,0,0,1-.32-1.07Q19.08,55,16.39,41.65c-1.33-6.58-2.69-13.16-4-19.74-.38-1.89-.7-3.79-1.1-5.67C11.11,15.54,11.42,15.25,12.29,14.92Z"/><path class="cls-2" d="M81.24,14a5.46,5.46,0,0,1,.25,1.27c-.22,2.51-.42,5-.73,7.53-.55,4.37-1.18,8.74-1.75,13.11-.89,6.81-1.74,13.63-2.65,20.45-.3,2.22-.78,4.41-1.08,6.63-.19,1.43-.19,2.88-.31,4.32a3.77,3.77,0,0,1-.25,1.26c-.1.24-.5.55-.68.51a1.19,1.19,0,0,1-.77-.66,2.33,2.33,0,0,1,.07-1.1c.48-3.07,1-6.13,1.43-9.21.57-4.2,1-8.42,1.58-12.62.36-2.71.88-5.4,1.25-8.11.49-3.67.87-7.35,1.34-11q.65-5,1.37-10.07A3.55,3.55,0,0,1,81.24,14Z"/></g></g></svg>