<svg xmlns="http://www.w3.org/2000/svg" viewBox="0 0 118.73 139.7"><defs><style>.cls-1{fill:#fff;}.cls-2{fill:#f8451d;}</style></defs><title>symbol-08</title><g id="Layer_2" data-name="Layer 2"><g id="Objects"><g id="_Group_" data-name="&lt;Group&gt;"><path id="_Path_" data-name="&lt;Path&gt;" class="cls-1" d="M116.37,51.34C114.8,38.55,115,25.81,106.64,15.2A39.55,39.55,0,0,0,74.07,0C65.5.55,56.93,1.08,48.35,1.55c-6.49.35-13.7-.22-20,1.53C16.5,6.39,8.27,17.86,4.66,29.07-.44,44.91,5,61.83,1.67,78c-1.42,6.93-3,14,.11,20.76,2.48,5.44,7.39,9.53,12.74,12,8,3.7,17,3.85,25.66,4.29,2.39.12,4.83.08,6.94,1.3s3.26,3.49,4.27,5.75a42.63,42.63,0,0,1,3.51,15.24,2.46,2.46,0,0,0,4.92,0c1.39-14.69,20.84-16.52,31.72-19.73,12.08-3.56,20.53-11.47,24.56-23.45C120.79,80.24,118.11,65.5,116.37,51.34Z"/><g id="_Group_2" data-name="&lt;Group&gt;"><path id="_Path_2" data-name="&lt;Path&gt;" class="cls-2" d="M36.43,28.89l7.3-3a8.35,8.35,0,0,0-1-4.57,8.58,8.58,0,0,0-6.18-4.2C15.16,13.62,17.26,40.66,17.26,40.66c.35,4,1.17,8.08,3.61,11.23A12.62,12.62,0,0,0,39.92,53a17.84,17.84,0,0,0,3.34-5.21,29.28,29.28,0,0,0,2.4-13.34c-3.39.46-6.75,1.06-10.1,1.78.09,1.58.12,3.17.12,4.75l4.65-.64a11.36,11.36,0,0,1-3.16,5.64c-2.55,2.3-6.67,3-9.63,1.29-4.16-2.45-4.5-8.78-4.27-12.66a17.52,17.52,0,0,1,1.95-7.23c1.07-2,2.68-4,4.83-4C34.35,23.3,36.43,28.89,36.43,28.89Z"/><path id="_Path_3" data-name="&lt;Path&gt;" class="cls-2" d="M71.93,25.76a6.7,6.7,0,0,0-2.17-3.08,9.42,9.42,0,0,0-13.06.88c-.24-1.6-.49-3.21-.76-4.81l-5.72.57c.16,10,.31,26,.47,36Q55.1,55,59.52,55C59,48.09,58.31,35.18,57.38,28.3a19.39,19.39,0,0,1,3.67-2.95,1,1,0,0,1,.78-.24c.33.11.44.53.46.88.07,1.26-.22,2.63.4,3.73.82,1.49,2.83,1.77,4.51,1.61a5.74,5.74,0,0,0,4.22-1.92A4.2,4.2,0,0,0,71.93,25.76Z"/><g id="_Group_3" data-name="&lt;Group&gt;"><path id="_Compound_Path_" data-name="&lt;Compound Path&gt;" class="cls-2" d="M86.29,43.8c-.43-.79-.83-1.61-1.21-2.44.54-.73,1.06-1.47,1.56-2.23a47.85,47.85,0,0,0,4.73-9.4c1.27-3.35,2.64-7.37,1.63-11s-4.29-6.13-8-5.36S79,17.75,77.73,21c-2.47,6.21-1.54,13.16.68,19.35A41.81,41.81,0,0,1,69.67,48l3.86,4.45A47.86,47.86,0,0,0,81,46.2a29.93,29.93,0,0,0,8.67,10.58c1.24-1.5,2.46-3,3.68-4.53A23.74,23.74,0,0,1,86.29,43.8Zm-4.13-16a13.63,13.63,0,0,1,2.43-7.33c.38-.49,1.21-1.54,2-1.29s1,1.91.92,2.61c-.12,2.57-1.27,5.37-2.27,7.72a41.26,41.26,0,0,1-2.51,4.91A24.51,24.51,0,0,1,82.16,27.77Z"/></g><g id="_Group_4" data-name="&lt;Group&gt;"><path id="_Path_4" data-name="&lt;Path&gt;" class="cls-2" d="M108,71.68a7.88,7.88,0,0,0-2.42-3.7,11.05,11.05,0,0,0-15.35.51q-.33-2.85-.7-5.68l-6.72.44q-.35,17.6-.67,35.19c3.45-.09,6.91-.09,10.36,0Q92,86.24,90.81,74.07a22.84,22.84,0,0,1,4.43-3.31,1.11,1.11,0,0,1,.92-.25c.39.14.49.63.5,1,0,1.48-.35,3.07.32,4.4.9,1.77,3.25,2.19,5.23,2.06s3.87-.61,5-2.08A4.88,4.88,0,0,0,108,71.68Z"/><g id="_Group_5" data-name="&lt;Group&gt;"><path id="_Compound_Path_2" data-name="&lt;Compound Path&gt;" class="cls-2" d="M36.57,61.41a13.43,13.43,0,0,0-7.2-2.09,47.64,47.64,0,0,0-14.13,2q-.12,10.35.1,20.71c.12,5.09.29,10.19.54,15.28,2.85-.05,5.71-.25,8.55-.56q-.13-8,.46-15.89a28.39,28.39,0,0,0,10.24-4.53,12.82,12.82,0,0,0,2.8-2.8C42.56,67.21,39.68,63.44,36.57,61.41ZM30.83,72a14.4,14.4,0,0,1-5.95,1.41V66.66c1.65-.12,3.31-.18,5-.16,1.28,0,2.78.19,3.41,1.3C34.14,69.39,32.47,71.22,30.83,72Z"/></g><g id="_Group_6" data-name="&lt;Group&gt;"><path id="_Path_5" data-name="&lt;Path&gt;" class="cls-2" d="M59,97.05l7.72-.23q6.33-16.68,13.51-33c-2.34.1-4.69.15-7,.15Q69.51,72.45,66,81c-1.11,2.76-2.21,5.52-3.28,8.28a83.47,83.47,0,0,1-2.63-8.54,60.59,60.59,0,0,0-7.12.42c-.7,2-1.44,4-2.2,6Q49.24,75.13,48.33,63H41.91q1.31,17.28,3.91,34.42h7.7Q55,94,56.38,90.52,57.57,93.82,59,97.05Z"/></g></g></g></g></g></g></svg>