<svg xmlns="http://www.w3.org/2000/svg" viewBox="0 0 70.5 137.09"><defs><style>.cls-1{fill:#f9ec7a;}.cls-2{fill:#2b3590;}</style></defs><title>symbol-19</title><g id="Layer_2" data-name="Layer 2"><g id="OBJECTS"><path class="cls-1" d="M18.41,129.27c1.33-.58,2.3-1,3.29-1.44a2.31,2.31,0,0,0,1.5-1.72c.4-1.56.89-3.1,1.41-4.63.18-.54.16-1.56,1.05-1.31s.39,1.06.21,1.64c-.35,1.19-.75,2.36-1.11,3.54-.09.32-.11.67-.19,1.16,1.06-.49,1.92-.94,2.83-1.27a2,2,0,0,0,1.32-1.65c.41-1.73.88-3.44,1.29-5.16.12-.49.16-1.05.83-.93s.69.72.57,1.27c-.2.84-.42,1.67-.61,2.51s-.35,1.6-.56,2.6c1.44-.64,2.64-1.11,3.78-1.71a2,2,0,0,0,.84-1.06c.55-1.52,1-3.06,1.5-4.6a3.86,3.86,0,0,1,.39-1.05,1,1,0,0,1,.77-.39.86.86,0,0,1,.39.74c-.1.63-.36,1.24-.52,1.86-.27,1.07-.91,2-.84,3.32,1.08-.46,2.06-.89,3.06-1.28a1.91,1.91,0,0,0,1.25-1.35c.36-1.24.78-2.46,1.22-3.68.18-.51.24-1.36,1.09-1.06s.33,1,.17,1.51c-.33,1-.67,2.08-1.08,3.36.87-.35,1.41-.58,2-.79,1.05-.39,2.1-.81,3.18-1.13a1.86,1.86,0,0,1,2.17.64,2,2,0,0,1,.13,2.27c-.1.18-.19.37-.29.57,2.7,4.08,5.17,8.24,8,12.58.11-.84.17-1.26.21-1.69q.92-8.84,1.81-17.66c.16-1.61.18-3.25,1.79-4.24a.88.88,0,0,0,.19-.26c1.34-1.89,2.63-3.81,4-5.64a6.44,6.44,0,0,0,1.44-4.4c-.1-4.19.11-8.38.22-12.58.14-5.27.28-10.54.46-15.81.36-10.33.76-20.65,1.14-31,.19-5,.37-10,.58-15,.14-3.55.33-7.09.46-10.64a2.65,2.65,0,0,0-.23-1.89c-1.86,1.42-3.63,2.83-5.45,4.15-5.69,4.15-11.4,8.26-17.1,12.39s-11.65,8.48-17.49,12.7q-6.09,4.39-12.22,8.7a3,3,0,0,0-1.52,2.75c0,4.51-.11,9-.27,13.53-.29,8.27-.64,16.54-1,24.8-.21,5.16-.41,10.32-.69,15.47-.4,7.41-.89,14.82-1.32,22.22-.06,1.06,0,2.12,0,3.37,1.13-.48,2.05-.91,3-1.27a2.61,2.61,0,0,0,1.77-2.06c.53-2.36,1.23-4.68,1.88-7,.12-.45.3-1,.94-.86s.51.72.35,1.21c-.1.3-.22.61-.3.92C19.6,124.86,19.06,126.87,18.41,129.27Z"/><path class="cls-2" d="M43.34,118c-2.32,1-4.66,2.09-7,3.09q-15,6.32-30,12.6a33.16,33.16,0,0,1-3.34,1.19c-1,.31-1.4,0-2-.86a6.85,6.85,0,0,1-1-4c.19-10.17.29-20.34.46-30.51.17-10.87.35-21.74.62-32.6.21-8.87.59-17.75.84-26.62a3.26,3.26,0,0,1,2-3.12C10,33.75,16.06,30.11,22.14,26.54c5.29-3.1,10.59-6.18,15.88-9.29L65.57,1.07c.32-.19.64-.4,1-.58C68.69-.64,70.3.23,70.41,2.68c.1,2.1.11,4.2.06,6.3Q70.11,26,69.71,43,69.4,55.54,69,68c-.2,7-.4,14-.66,21-.11,2.79-.34,5.58-.58,8.36a3.72,3.72,0,0,1-.67,1.75c-1.74,2.32-3.59,4.56-5.3,6.9a7.6,7.6,0,0,0-1.66,4.09c-.31,4.72-.74,9.44-1.17,14.16-.32,3.58-.71,7.17-1,10.75a2,2,0,0,1-1.39,2,1.92,1.92,0,0,1-2.3-1.05c-1.53-2.47-3-5-4.5-7.46l-6.11-10.24C43.6,118.16,43.49,118.11,43.34,118Zm-27.79,7.58c1.33-.58,2.3-1,3.29-1.43a2.36,2.36,0,0,0,1.51-1.72c.39-1.56.88-3.11,1.4-4.63.19-.54.17-1.56,1.06-1.32s.38,1.07.21,1.65c-.36,1.18-.76,2.35-1.11,3.54a9.21,9.21,0,0,0-.2,1.15c1.07-.48,1.92-.94,2.83-1.26a2,2,0,0,0,1.32-1.66c.41-1.72.88-3.44,1.3-5.16.11-.49.16-1,.83-.93s.69.72.56,1.28c-.19.84-.41,1.67-.61,2.51s-.34,1.59-.56,2.59c1.44-.63,2.64-1.11,3.78-1.7a2,2,0,0,0,.85-1.06c.54-1.52,1-3.07,1.5-4.61a3.59,3.59,0,0,1,.38-1,1,1,0,0,1,.77-.39.88.88,0,0,1,.4.73c-.1.64-.36,1.24-.52,1.86-.28,1.07-.92,2-.85,3.33,1.09-.46,2.07-.9,3.06-1.29A1.89,1.89,0,0,0,38,114.66c.37-1.23.78-2.46,1.22-3.67.19-.51.24-1.36,1.09-1.06s.33,1,.17,1.5c-.32,1-.66,2.08-1.08,3.37.87-.36,1.41-.59,2-.79,1.05-.39,2.09-.81,3.17-1.13a1.86,1.86,0,0,1,2.18.64,2,2,0,0,1,.13,2.27c-.11.18-.19.36-.3.57,2.71,4.07,5.18,8.24,8,12.57.11-.84.17-1.26.22-1.69.6-5.88,1.22-11.77,1.81-17.66.16-1.61.18-3.25,1.78-4.24.09,0,.13-.17.19-.26,1.34-1.88,2.63-3.81,4-5.64a6.41,6.41,0,0,0,1.45-4.39c-.1-4.19.11-8.39.22-12.58.13-5.27.27-10.55.46-15.82q.54-15.48,1.13-31,.28-7.5.58-15c.15-3.55.33-7.1.46-10.65a2.71,2.71,0,0,0-.22-1.89C64.84,9.57,63.08,11,61.26,12.3c-5.69,4.14-11.41,8.25-17.11,12.38S32.5,33.17,26.66,37.39q-6.07,4.38-12.22,8.69a3,3,0,0,0-1.52,2.75c0,4.51-.11,9-.27,13.53-.29,8.27-.63,16.54-1,24.81-.21,5.16-.4,10.31-.69,15.47-.4,7.41-.88,14.81-1.31,22.22-.06,1,0,2.12,0,3.37,1.13-.49,2-.91,3-1.28a2.62,2.62,0,0,0,1.78-2c.53-2.36,1.22-4.69,1.87-7,.13-.45.3-1,.95-.86s.5.72.34,1.21c-.1.31-.21.61-.3.92C16.74,121.16,16.2,123.18,15.55,125.57Z"/><path class="cls-2" d="M28.58,2.85Q28.19,9.93,27.79,17c0,.16,0,.33,0,.49a1.21,1.21,0,0,1-1.11,1.18c-.64.08-.95-.39-1.11-1-.39-1.34-.77-2.68-1.14-4-.81-3-1.59-6-2.43-9a1,1,0,0,1,.67-1.4c1.3-.64,2.59-1.3,3.9-1.91C28,.69,28.79,1.24,28.58,2.85Z"/><path class="cls-2" d="M34.59,14.58c.38-1.88.73-3.5,1-5.13.38-1.95.72-3.91,1.13-5.85a2.29,2.29,0,0,1,2.39-2.16,12.17,12.17,0,0,1,2.09-.05c1.43.11,1.94.86,1.4,2.17s-1.22,2.62-1.86,3.92C39.9,9.31,39,11.15,38.07,13c-.39.75-1,1.4-1.42,2.12-.29.46-.72.76-1.19.5A3.6,3.6,0,0,1,34.59,14.58Z"/><path class="cls-2" d="M8.85,13.74A10.74,10.74,0,0,1,10,11.94c2.29-2.38,3.49-2.32,4.73.78,1,2.48,2,5,3,7.46A3.85,3.85,0,0,1,18,21.74a1.42,1.42,0,0,1-.61,1c-.23.13-.69,0-1-.16s-.39-.36-.57-.56c-2-2.13-3.93-4.25-5.86-6.42A12.37,12.37,0,0,1,8.85,13.74Z"/><path class="cls-2" d="M43.91,73.53a112.56,112.56,0,0,1-1.06,16.4,34.69,34.69,0,0,1-2.24,9,13.51,13.51,0,0,1-2.4,3.77,4.68,4.68,0,0,1-6.9.07,11.79,11.79,0,0,1-2.83-5,59.7,59.7,0,0,1-2.66-15.7,115.77,115.77,0,0,1,1.09-21.38,32.23,32.23,0,0,1,1-4.08,3.43,3.43,0,0,1,1.44-2.07,3.84,3.84,0,0,0,.83-1c.26-.34.48-.71.76-1,2.64-3.18,5.76-2.49,8,.14a19.09,19.09,0,0,1,2.74,5.07,34,34,0,0,1,2,10.24C43.79,69.87,43.82,71.7,43.91,73.53ZM34.37,56.8A6.12,6.12,0,0,0,33.66,58c-.68,2.32-1.31,4.65-1.95,7a14.47,14.47,0,0,0-.66,2.63,90.83,90.83,0,0,0-.13,14.66A60.47,60.47,0,0,0,33,94.81a5.57,5.57,0,0,0,1.42,2.82c.26-.74.52-1.31.67-1.91a46.75,46.75,0,0,0,1.53-8.39c.17-2.4.69-4.79.78-7.19.15-3.6.19-7.21,0-10.8a65.42,65.42,0,0,0-1.12-8A12.7,12.7,0,0,0,34.37,56.8Z"/><path class="cls-2" d="M52.32,62.31c.59-1.42,1.17-2.84,1.79-4.25,1.51-3.45,3-6.9,4.56-10.34a4.22,4.22,0,0,1,.89-1.31,2,2,0,0,1,2.4-.35,2,2,0,0,1,1.18,2.11,9.57,9.57,0,0,1-.57,2q-3.41,8.88-6.86,17.75c-.37.95-.75,1.89-1.17,2.82a1.68,1.68,0,0,0,.22,1.78c2,3.23,4,6.5,6,9.75a2,2,0,0,1,.42.86,5.94,5.94,0,0,0,1.38,3.18,1.91,1.91,0,0,1-3,2.33c-.91-1.06-1.7-2.22-2.51-3.36-1.18-1.66-2.35-3.34-3.52-5-.11-.17-.15-.4-.42-.34,0,1.8,0,3.6,0,5.4,0,2.31.12,4.62.22,6.93.05,1.08.17,2.15.26,3.22,0,.27.08.53.09.8a2.71,2.71,0,0,1-2.31,3A2.42,2.42,0,0,1,48.58,97c-.44-3.14-.84-6.29-1.12-9.45-.21-2.29,0-4.63-.35-6.91a40.11,40.11,0,0,1-.22-5.69c0-8-.2-16-.31-24a8.37,8.37,0,0,1,.22-2.07A2.41,2.41,0,0,1,49.15,47a2.09,2.09,0,0,1,2,1.93c.25,1.7.4,3.42.5,5.13.15,2.73.23,5.46.34,8.19Z"/><path class="cls-2" d="M16.07,93.74c0-7.84.08-15.69.09-23.53,0-6.24,0-12.48-.07-18.72A3.51,3.51,0,0,1,18,48.11c2.85-1.82,5.55-3.86,8.28-5.87q9.42-6.91,18.81-13.9l.27-.17c1.27-.84,2.39-.77,3.16.19a2.18,2.18,0,0,1-.63,3.23c-2.76,2.06-5.58,4-8.36,6.06-6.2,4.54-12.38,9.11-18.59,13.65a2,2,0,0,0-.83,1.92q.21,12.16.33,24.35c0,5.16,0,10.32,0,15.49a6.21,6.21,0,0,1-.16,1.43,2.11,2.11,0,0,1-2.51,1.72A2,2,0,0,1,16.07,93.74Z"/></g></g></svg>