<svg xmlns="http://www.w3.org/2000/svg" viewBox="0 0 167.01 162.98"><defs><style>.cls-1{fill:#f7b033;}.cls-2{fill:#2b3590;}.cls-3{fill:#fff;stroke:#2b3590;stroke-miterlimit:10;}</style></defs><title>symbol-09</title><g id="Layer_2" data-name="Layer 2"><g id="OBJECTS"><path class="cls-1" d="M84.71,127.37c.3.08.41.15.5.13a59.52,59.52,0,0,0,22.18-7.89,60.15,60.15,0,0,0,12.76-10.29,59.32,59.32,0,0,0,12.52-19.93,61.35,61.35,0,0,0,3.41-13.57,57.33,57.33,0,0,0,.15-14.63A60.77,60.77,0,0,0,124.4,31.93a61.14,61.14,0,0,0-12.09-12,43.33,43.33,0,0,0-14.86-7.46c-2.38-.63-4.77-1.3-7.14-2a49.85,49.85,0,0,0-11-1.78,64,64,0,0,0-14.61.83,51.09,51.09,0,0,0-13.41,3.94A60.46,60.46,0,0,0,17.81,55.79,58.15,58.15,0,0,0,17,75a61,61,0,0,0,4.34,16.47,59.76,59.76,0,0,0,11.11,17.28,41,41,0,0,0,5.94,5.49c.44-.61.79-1.14,1.18-1.65s.75-.85,1.35-.44.43.89.09,1.4-.77,1.24-1.21,2l3.82,2.68c.89-1.73,1.66-3.26,2.48-4.77a9.42,9.42,0,0,1,1.07-1.59.74.74,0,0,1,.72-.07.77.77,0,0,1,.2.69,7.71,7.71,0,0,1-.59,1.14c-.93,1.75-1.85,3.49-2.8,5.3A33.61,33.61,0,0,0,50.46,122c1-2,1.84-3.92,2.79-5.79.28-.56.54-1.63,1.39-1.2s0,1.19-.22,1.74c-.94,1.91-2,3.78-2.81,6l5.82,2.3c1-2,1.81-3.78,2.67-5.56a6.91,6.91,0,0,1,.79-1.41,1.14,1.14,0,0,1,.89-.42c.55.18.4.65.2,1.07-.9,1.83-1.8,3.67-2.69,5.5-.18.37-.32.76-.52,1.24l5,1.28.78-1.28c1.41-2.36,2.8-4.72,4.24-7.06A6.59,6.59,0,0,1,70,117.05a.72.72,0,0,1,.71,0,.81.81,0,0,1,.16.69,2.47,2.47,0,0,1-.41.69c-1.43,2.41-2.87,4.81-4.29,7.21-.24.41-.41.85-.7,1.46l5.16.76c.33-.56.56-1,.82-1.39,1.68-2.63,3.34-5.27,5.06-7.87.42-.63.83-1.41,1.8-1.33.57.79,0,1.24-.37,1.76-1.7,2.62-3.4,5.23-5.08,7.86a7.45,7.45,0,0,0-.47,1.13c1.64,0,3.08.06,4.52.12a1.11,1.11,0,0,0,1.13-.71c.57-1.1,1.18-2.18,1.79-3.26q1.26-2.23,2.53-4.47c.22-.4.52-.79,1-.54s.38.78.15,1.23c-.07.14-.14.29-.22.43-1,1.77-2,3.54-3,5.32-.3.54-.55,1.1-.94,1.9l2.84-.21c.74-1.46,1.41-2.86,2.16-4.22.46-.83,1-1,1.55-.67s.51,1,.23,1.57C85.65,125.42,85.2,126.34,84.71,127.37Z"/><path class="cls-1" d="M146,127.93a9.08,9.08,0,0,0-9.33-9.41c-5.37.22-9.34,3.6-9.4,9.37a9.42,9.42,0,0,0,9.38,9.3A9.22,9.22,0,0,0,146,127.93Z"/><path class="cls-1" d="M157.13,156.6a8.16,8.16,0,0,0,8.18-8.23,8.29,8.29,0,0,0-8.23-8.23,8.48,8.48,0,0,0-8.43,8.22A8.59,8.59,0,0,0,157.13,156.6Z"/><path class="cls-2" d="M69.15,0A70.77,70.77,0,0,1,83.07,1.61a100.46,100.46,0,0,1,10.3,2.68A67.33,67.33,0,0,1,112.32,14.8a60.91,60.91,0,0,1,11.09,10.55c5.16,6.54,9.55,13.52,12.25,21.48a66.23,66.23,0,0,1,3.52,21.22,61.28,61.28,0,0,1-1.34,13,62.78,62.78,0,0,1-7.45,19.31,67.59,67.59,0,0,1-7.48,10.29,64.38,64.38,0,0,1-13.76,11.61,66.63,66.63,0,0,1-18.59,7.94,79.93,79.93,0,0,1-18.47,2.57,108.44,108.44,0,0,1-13-.36,59,59,0,0,1-17-4.4,56.07,56.07,0,0,1-8.65-4.18A74.18,74.18,0,0,1,22.79,116,78.14,78.14,0,0,1,12,103.93a50.35,50.35,0,0,1-7.11-12.6c-1.12-3.13-2.18-6.3-3-9.52A53.81,53.81,0,0,1,.62,74.52C.32,72,.16,69.39,0,66.82c0-.85.15-1.7.17-2.56A55.28,55.28,0,0,1,1.7,51.18c.84-3.26,1.94-6.46,3.08-9.64,1.45-4,3.84-7.54,6.15-11.11A67.65,67.65,0,0,1,19,20.4,59.94,59.94,0,0,1,31.79,9.71,73.93,73.93,0,0,1,41.84,4.63,64.56,64.56,0,0,1,53.75,1.19,61.24,61.24,0,0,1,67.54,0C68.07.06,68.61,0,69.15,0ZM82.71,126.7a2.68,2.68,0,0,0,.5.14,60.22,60.22,0,0,0,47.46-38.12,61.35,61.35,0,0,0,3.41-13.57,57.32,57.32,0,0,0,.15-14.63,60.61,60.61,0,0,0-23.92-41.26A43.16,43.16,0,0,0,95.45,11.8c-2.38-.64-4.77-1.31-7.14-2A49.86,49.86,0,0,0,77.35,8a65.1,65.1,0,0,0-14.61.83,51.86,51.86,0,0,0-13.41,3.94A60.46,60.46,0,0,0,15.81,55.12,58.2,58.2,0,0,0,15,74.38a60.91,60.91,0,0,0,4.34,16.46,59.76,59.76,0,0,0,11.11,17.28,40.41,40.41,0,0,0,5.94,5.49c.44-.61.79-1.14,1.18-1.65s.75-.84,1.35-.44.43.9.09,1.4-.77,1.24-1.21,2l3.82,2.67c.89-1.72,1.66-3.25,2.48-4.76a9.11,9.11,0,0,1,1.07-1.6.74.74,0,0,1,.72-.07.77.77,0,0,1,.2.69A7.34,7.34,0,0,1,45.5,113c-.93,1.74-1.85,3.48-2.8,5.29a33.61,33.61,0,0,0,5.76,3.08c1-2,1.84-3.92,2.79-5.79.28-.56.54-1.63,1.39-1.2s0,1.19-.22,1.74c-.94,1.91-2,3.78-2.81,6l5.82,2.29,2.67-5.56a7.11,7.11,0,0,1,.79-1.4c.19-.24.66-.5.89-.42.55.17.4.64.2,1.06-.9,1.84-1.8,3.67-2.69,5.51-.18.36-.32.75-.52,1.24l5,1.27.78-1.28c1.41-2.35,2.8-4.72,4.24-7.06A6.87,6.87,0,0,1,68,116.38a.72.72,0,0,1,.71,0,.83.83,0,0,1,.16.7,2.62,2.62,0,0,1-.41.69c-1.43,2.4-2.87,4.8-4.29,7.21-.24.4-.41.84-.7,1.46l5.16.75c.33-.56.56-1,.82-1.39,1.68-2.63,3.34-5.27,5.06-7.87.42-.62.83-1.41,1.8-1.32.57.78,0,1.23-.37,1.75q-2.55,3.93-5.08,7.86a7.92,7.92,0,0,0-.47,1.13c1.64,0,3.08.07,4.52.13a1.13,1.13,0,0,0,1.13-.72c.57-1.1,1.18-2.17,1.79-3.25q1.26-2.25,2.53-4.48c.22-.39.52-.78,1-.54s.38.78.15,1.23c-.07.15-.14.29-.22.43-1,1.78-2,3.55-3,5.33-.3.53-.55,1.1-.94,1.89l2.84-.21c.74-1.45,1.41-2.86,2.16-4.22.46-.82,1-1,1.55-.66s.51,1,.23,1.56C83.65,124.76,83.2,125.67,82.71,126.7Z"/><path class="cls-2" d="M133.24,142.41c-3.39-.14-6.3-.53-8.8-2.36a13,13,0,0,1-5.61-9.72,13.58,13.58,0,0,1,1.31-6.09,14.6,14.6,0,0,1,8.24-8.35,15.09,15.09,0,0,1,7.47-1.66A12.62,12.62,0,0,1,147,122.11,12.18,12.18,0,0,1,145.37,135a39.38,39.38,0,0,1-2.89,3.66A12.46,12.46,0,0,1,133.24,142.41ZM144,127.26a9.08,9.08,0,0,0-9.33-9.4c-5.37.21-9.34,3.6-9.4,9.36a9.43,9.43,0,0,0,9.38,9.31A9.22,9.22,0,0,0,144,127.26Z"/><path class="cls-2" d="M167,148.18c.07,5.1-2.94,10.79-7.12,13.16-5,2.87-12.08,2-15.75-2.9-3.26-4.37-4.31-9.44-1.51-14.41a15.56,15.56,0,0,1,9.94-7.95A11.88,11.88,0,0,1,167,146.89C167,147.32,167,147.75,167,148.18Zm-11.88,7.75a8.16,8.16,0,0,0,8.18-8.23,8.28,8.28,0,0,0-8.23-8.22,8.47,8.47,0,0,0-8.43,8.21A8.59,8.59,0,0,0,155.13,155.93Z"/><path class="cls-2" d="M75.91,23.83c.09,1.55.18,3.1.26,4.65a2.26,2.26,0,0,1-.07,1.11,1.54,1.54,0,0,1-.94.7,1.12,1.12,0,0,1-.9-.47A2.66,2.66,0,0,1,74,28.6q-.4-6.66-.78-13.32A2.81,2.81,0,0,1,73.26,14a1.79,1.79,0,0,1,.95-.89c.52-.16.91.24,1,.77a15.4,15.4,0,0,1,.27,1.91c.18,2.67.33,5.35.5,8Z"/><path class="cls-2" d="M63.29,19.77c0-.73.15-1.28.85-1.47s1.08.19,1.33,1.06c.89,3.09,1.79,6.19,2.66,9.29.35,1.23.18,1.83-.53,2.06s-1.12-.15-1.52-1.45q-1.24-4-2.44-8C63.48,20.74,63.39,20.21,63.29,19.77Z"/><path class="cls-2" d="M87.17,21.7c-.24,1.53-.49,3.06-.74,4.6-.11.68-.21,1.37-.3,2.06C86,29.5,85.54,30,84.73,29.9s-1.14-.76-1-1.88c.2-1.54.44-3.08.67-4.62.1-.74.18-1.49.32-2.22.19-1,.71-1.6,1.34-1.55s1,.63,1,1.73v.32Z"/><path class="cls-2" d="M61.89,34c-.29.36-.48.84-.79.95a1.31,1.31,0,0,1-1.16-.22c-1.87-2.08-3.68-4.2-5.5-6.32a1.32,1.32,0,0,1-.35-.71,1.74,1.74,0,0,1,.29-1.13,1.56,1.56,0,0,1,1.18-.13c.27.05.52.36.73.59,1.58,1.83,3.16,3.66,4.71,5.51A11,11,0,0,1,61.89,34Z"/><path class="cls-2" d="M94.75,23.21c-.18.42-.26.67-.38.9l-2.83,5.4a5,5,0,0,1-.31.56,1,1,0,0,1-1.35.53.91.91,0,0,1-.46-1.35c1-2.12,2-4.23,3.09-6.33a1,1,0,0,1,1.31-.62C94.2,22.48,94.46,22.91,94.75,23.21Z"/><path class="cls-2" d="M49.58,31.29a4.53,4.53,0,0,1,.85.49c1.18,1.16,2.34,2.34,3.5,3.52.18.19.42.44.42.66,0,.38,0,.92-.26,1.12a1.18,1.18,0,0,1-1.13.09q-2.16-2-4.17-4.2c-.2-.21-.11-.81,0-1.17S49.29,31.47,49.58,31.29Z"/><path class="cls-2" d="M117.45,102a3.13,3.13,0,0,1-1.56,2.11c-.65.15-1.44-.54-1.17-1.11a5.75,5.75,0,0,1,1.35-1.75C116.57,100.79,117.42,101.31,117.45,102Z"/><path class="cls-2" d="M110.18,108.38a1.12,1.12,0,0,1-1-1.22,1.62,1.62,0,0,1,1.55-1.34,1,1,0,0,1,.9,1.11A1.78,1.78,0,0,1,110.18,108.38Z"/><path class="cls-3" d="M39.54,76.64,34,78c.09,2.12.17,4.2.27,6.27,0,.81.16,1.61.18,2.41A3,3,0,0,1,31.87,90a3.18,3.18,0,0,1-3.49-2.68,41.87,41.87,0,0,1-.66-4.47c-.36-4.44-.71-8.89-1-13.34s-.41-8.91-.59-13.37c-.05-1.28-.07-2.57,0-3.86a3.27,3.27,0,0,1,1.29-2.82,2.56,2.56,0,0,1,4.05,1.31,16.45,16.45,0,0,1,.66,3.48c.2,2.08.27,4.16.42,6.25q.39,5.22.8,10.44a2.54,2.54,0,0,0,.18.53l5.73-.81c0-1.54,0-3,0-4.42-.09-5.48-.21-11-.27-16.45,0-1.33.14-2.66.24-4a4.13,4.13,0,0,1,.22-1.1A2.55,2.55,0,0,1,42,42.83a2.42,2.42,0,0,1,2.21,2,55.36,55.36,0,0,1,.59,5.6c.44,7.57.8,15.14,1.26,22.7.28,4.72.66,9.44,1,14.15.22,3.06.48,6.11.69,9.16a6.52,6.52,0,0,1-.17,1.92,2.88,2.88,0,0,1-2.93,2.49,3,3,0,0,1-2.82-2.65c-.33-1.74-.69-3.49-.86-5.25-.49-5-.89-10-1.32-14.94C39.63,77.67,39.6,77.3,39.54,76.64Z"/><path class="cls-3" d="M59.76,47.44c.63,5.11,1.23,10.05,1.85,15.11,1.85-.35,3.57-.73,5.31-1,3-.44,6-.86,9-1.2a2.51,2.51,0,0,1,2.83,1.88,2.54,2.54,0,0,1-1.37,3,5.53,5.53,0,0,1-1.33.56c-4.49,1-9,2-13.67,3.09.33,4.2.66,8.39,1,12.8,1-.11,1.91-.15,2.79-.31,2.69-.51,5.36-1.11,8.07-1.56a4.92,4.92,0,0,1,2.34.25,2.74,2.74,0,0,1,1.86,2.6,3,3,0,0,1-1.59,3,9.8,9.8,0,0,1-2.39.93c-3,.72-6.07,1.47-9.14,2A12,12,0,0,1,61,88.4a5.21,5.21,0,0,1-4.32-4.65c-.29-2.06-.37-4.17-.5-6.26-.28-4.61-.55-9.23-.77-13.84q-.45-9.1-.83-18.2a2.91,2.91,0,0,1,2.33-3.39,35,35,0,0,1,5.18-1.19c2.86-.47,5.75-.83,8.62-1.21a9.71,9.71,0,0,1,1.94-.09,2.58,2.58,0,0,1,.73,5.07c-1.54.45-3.13.77-4.71,1.07-2.75.53-5.5,1-8.25,1.49A4,4,0,0,0,59.76,47.44Z"/><path class="cls-3" d="M99.45,54c.35-1.23.67-2.24.94-3.27,1-3.63,1.9-7.27,2.87-10.9a8.74,8.74,0,0,1,.82-1.92,2.48,2.48,0,0,1,2.6-1.24,2.27,2.27,0,0,1,2.07,1.77,13,13,0,0,1,.28,3.35,82.49,82.49,0,0,1-2.19,14.31c-1.2,5.56-2.35,11.14-3.51,16.72q-1.18,5.67-2.35,11.36a3.75,3.75,0,0,1-1.17,2.23,3.16,3.16,0,0,1-5.23-2.06,20,20,0,0,1,.09-2.89,163.76,163.76,0,0,1,2.18-17.1,2.9,2.9,0,0,1,.21-.78,1.89,1.89,0,0,0-.4-2.21c-1.7-2.15-3.41-4.29-5-6.5-1.78-2.43-3.47-4.92-5.18-7.4-1-1.51-2.06-3-3-4.58a13.2,13.2,0,0,1-1.44-3,2.43,2.43,0,0,1,1.22-3,2.76,2.76,0,0,1,3.34.76,110.87,110.87,0,0,1,12.31,15.9A4.3,4.3,0,0,0,99.45,54Z"/><path class="cls-3" d="M122.09,50.78c.09,5,.22,10.09.24,15.13,0,3.11-.13,6.23-.23,9.34a9.3,9.3,0,0,1-.31,2.23,3.11,3.11,0,0,1-2.87,2.21,3,3,0,0,1-3-2,20,20,0,0,1-.85-4.4c-.32-4.61-.67-9.22-.72-13.83,0-3.91.36-7.82.53-11.73.08-2,.07-4.08.14-6.12a9,9,0,0,1,.27-2.07A2.86,2.86,0,0,1,118,37.32a2.82,2.82,0,0,1,2.65,2,25.64,25.64,0,0,1,1.33,7.27c.08,1.39,0,2.79,0,4.18Z"/><path class="cls-3" d="M117.53,83.75a3.62,3.62,0,0,1,3.52,3.81,3.71,3.71,0,0,1-3.54,3.32,3.6,3.6,0,0,1-3.47-3.7A3.41,3.41,0,0,1,117.53,83.75Z"/></g></g></svg>