<svg xmlns="http://www.w3.org/2000/svg" viewBox="0 0 122.7 91.09"><defs><style>.cls-1{fill:#3e2a93;}.cls-2{fill:none;}.cls-3{fill:#75e1d1;}</style></defs><title>symbol-02</title><g id="Layer_2" data-name="Layer 2"><g id="Objects"><g id="_Group_" data-name="&lt;Group&gt;"><path id="_Path_" data-name="&lt;Path&gt;" class="cls-1" d="M1.23,34.17C12.15-.15,56.05-2.41,85.73,1.31c14.9,1.87,31.15,8.8,35.59,24.55,4,14.15-.78,33.05-12.69,42.17-6.94,5.32-15.93,7.06-24.51,6.79a71.52,71.52,0,0,1-7.46-.67C74,73.8,70.53,72.56,68,73.08c-6.69,1.37-3.83,10.85-2.46,15.09.83,2.57-3,4.07-4.3,1.81A31.29,31.29,0,0,0,40.09,75.09c-8.87-1.68-18.34-.38-26.37-5.31C2,62.57-2.36,47,1.23,34.17Z"/><g id="_Group_2" data-name="&lt;Group&gt;"><path id="_Path_2" data-name="&lt;Path&gt;" class="cls-2" d="M26.7,39.15c-1.63,4.15-2.37,9.13.7,12.84,2.58,3.13,7.34,3.21,10.67,1.32a14.59,14.59,0,0,0,6.14-7.74c-.63.17-1.28.32-1.93.44C36.16,47.08,29.77,44.8,26.7,39.15Z"/><path id="_Path_3" data-name="&lt;Path&gt;" class="cls-2" d="M41.67,30.39c-2.38-1.93-6-2.41-8.45-.47a4.71,4.71,0,0,1-.34.48l-1,1.16c-1.77,3.32,1.42,7.18,4.57,8.2,3,1,6.17.21,9-1.2A10.82,10.82,0,0,0,41.67,30.39Z"/><path id="_Compound_Path_" data-name="&lt;Compound Path&gt;" class="cls-3" d="M100.25,50.32a9.09,9.09,0,0,1-12.33-.1c-3.66-3.49-4.14-9.29-6.41-13.64-1.91-3.66-5.14-7-9.35-7.73,2.39-2.39,5.42-6.2,8-8.33l.28-.25L76.11,16c-4,3.29-8.28,8.35-11.77,12.14.09-3.17.15-6.34.16-9.5.1-1.41.1-5.39,0-6.78v-.06q-3.07.44-6.16.64c0,1.06,0,4.7,0,5.76A25.27,25.27,0,0,1,51,34.51a16.65,16.65,0,0,0-4.32-7.88,13.14,13.14,0,0,0-16-2.38,11.29,11.29,0,0,0-3.63,3.47,32.91,32.91,0,0,0-6.67,10.86c-2,5.77-1.76,12.37,2.26,17.26s10.65,6,16.32,3.84c5.91-2.29,9.82-7.8,11.61-13.71a23,23,0,0,0,.8-3.68,28,28,0,0,0,6.25-5.86,2.65,2.65,0,0,0,.14,2.12q-.51,9.2-1.47,18.35l6.15-.06q.95-9.15,1.46-18.33c3.17-2.95,7.19-5.45,10.66-1.33,3.16,3.75,3.7,9,6,13.31a15.45,15.45,0,0,0,23.24,4.93Zm-62.18,3C34.74,55.2,30,55.12,27.4,52c-3.07-3.71-2.33-8.69-.7-12.84,3.07,5.65,9.46,7.93,15.58,6.86.65-.12,1.3-.27,1.93-.44A14.59,14.59,0,0,1,38.07,53.31ZM36.43,39.76c-3.15-1-6.34-4.88-4.57-8.2l1-1.16a4.71,4.71,0,0,0,.34-.48c2.41-1.94,6.07-1.46,8.45.47a10.82,10.82,0,0,1,3.73,8.17C42.6,40,39.4,40.72,36.43,39.76Z"/></g></g></g></g></svg>