<svg xmlns="http://www.w3.org/2000/svg" viewBox="0 0 144.03 102.31"><defs><style>.cls-1{fill:#8eedef;}.cls-2{fill:#f7b033;stroke:#2d2e81;stroke-miterlimit:10;stroke-width:1.08px;}</style></defs><title>symbol-13</title><g id="Layer_2" data-name="Layer 2"><g id="OBJECTS"><path class="cls-1" d="M25.13,35.6c.22-.84.43-1.68.68-2.5A130,130,0,0,0,29.1,17.37c.5-3,1.79-4.49,4.78-5,2.81-.48,5.65-.86,8.49-1.15s4.05,1,3.51,3.74a102.34,102.34,0,0,1-2.8,11.36c-3.4,10.56-5.95,21.33-8.62,32.08C31.94,68.57,29.53,78.78,27.07,89a12.35,12.35,0,0,1-.69,2.16,4.34,4.34,0,0,1-3.45,2.64c-2.41.39-4.82.79-7.23,1.16A5.48,5.48,0,0,1,12,94.55a3.15,3.15,0,0,1-1.78-2.77,18.51,18.51,0,0,1,.15-3.49c.89-5.88,1.85-11.74,2.79-17.62.65-4,1.39-8,1.92-12.08a38.84,38.84,0,0,0,.21-6.29c-.19-6.22-.18-6.23-2.24-12.45-2-6-4.12-12-6.17-18-.49-1.43-1-2.86-1.39-4.33-.7-2.62.15-4.27,2.76-4.91a65.93,65.93,0,0,1,6.89-1.12,2.77,2.77,0,0,1,3,1.91,15.56,15.56,0,0,1,.68,2Q21.71,25.16,24.58,35c.06.21.15.43.22.64Z"/><path class="cls-1" d="M58.88,58c-1.57.37-2.92.67-4.27,1a1.35,1.35,0,0,0-1,1.28c-.22,1.32-.53,2.63-.65,4-.38,4.12-.68,8.25-1,12.38-.24,2.81-1.27,4.14-4,4.77s-5.37,1-8.06,1.52a7.85,7.85,0,0,1-1.75,0c-1.68-.06-2.15-.59-2.36-2.32a10.81,10.81,0,0,1,.28-4C39.45,62.84,42.81,49,46.21,35.09c.66-2.72,1.39-5.42,2-8.14A3.66,3.66,0,0,1,51,24.1c2.53-.85,5-2,7.44-3,.59-.25,1.14-.59,1.73-.84,2.16-.91,3.55-.42,4.51,1.77A21.84,21.84,0,0,1,66,26.13c1.21,5.52,2.23,11.08,3.52,16.59a213.05,213.05,0,0,0,6,21.91c.27.77.38,1.58.61,2.37.68,2.37-.6,3.76-2.06,4.73a18.92,18.92,0,0,1-2.34,1.17l-6,2.83c-.31.14-.62.32-.95.44a2.81,2.81,0,0,1-3.89-1.6,13.21,13.21,0,0,1-.93-3.71c-.37-3.65-.6-7.32-.88-11C59,59.37,59,58.85,58.88,58Z"/><path class="cls-1" d="M94.6,49a2.23,2.23,0,0,0-2.36,2.42c-.07,3.55-.11,7.09,0,10.64,0,2.21.23,4.42.39,6.63a3.66,3.66,0,0,1-2.13,3.87,44.23,44.23,0,0,1-4.85,1.95,5.27,5.27,0,0,1-2.24.15c-1.66-.19-2.24-1-2.48-2.6-1.41-9.62-.66-19.3-.88-28.95-.12-5.65-.25-11.3-.36-17,0-.81,0-1.63,0-2.44A4.94,4.94,0,0,1,83,18.85c1.76-.76,3.6-1.34,5.41-2s3.63-1.25,5.45-1.86q.66-.23,1.35-.39c2.8-.66,4.3,0,5.4,2.71a56.92,56.92,0,0,1,2.4,6.74q4.18,15.35,8.21,30.72c.43,1.63.71,3.3,1,5a4.56,4.56,0,0,1-1.79,4.48,22,22,0,0,1-8.57,4.19c-2.43.61-4-.24-4.76-2.62a21,21,0,0,1-.86-4.08c-.5-3.7-.92-7.4-1.38-11.1C94.82,50.08,94.7,49.53,94.6,49Z"/><path class="cls-1" d="M129.75,21.3c-.09,1,.66,1.57,1.29,2.14,1.54,1.42,3.15,2.77,4.72,4.16a24.22,24.22,0,0,1,8,14.93,21.5,21.5,0,0,1-4,16.53c-3.92,5.36-9.67,6.85-15.84,5-2.69-.79-4.68-2.77-6.33-5-3.11-4.25-3.92-9.13-4-14.22A1.69,1.69,0,0,1,114.8,43c2-.66,4.08-1.38,6.15-2,1.33-.38,1.69-.06,2.15,1.27A11.51,11.51,0,0,0,128,48.23c1.37.87,2.26.29,2.16-1.34a12.81,12.81,0,0,0-1.81-5.24,73,73,0,0,0-7.94-11.26c-1.25-1.53-2.32-3.21-3.44-4.84A10.57,10.57,0,0,1,115.57,17a15,15,0,0,1,5.79-9.3,11.82,11.82,0,0,1,12.57-1.19,19.88,19.88,0,0,1,9.34,8.62c1,1.84.89,2.32-.6,3.84s-3.26,3.33-4.93,5c-1.08,1.05-1.3,1-2.43-.06-.9-.84-1.82-1.64-2.7-2.49S131.13,20.4,129.75,21.3Z"/><path class="cls-1" d="M128.67,69.06c3.64,0,5,1.59,4.25,4.39a42.68,42.68,0,0,1-1.27,4.17A5.32,5.32,0,0,1,127,81.35c-7.32,1-14.67,2-21.94,3.3a303.9,303.9,0,0,0-32.45,7.79c-8.42,2.53-16.81,5.17-25.21,7.78-.77.24-1.5.63-2.27.91a3.55,3.55,0,0,1-1.48.39,4.34,4.34,0,0,0-2.5.57,2,2,0,0,1-2.35-.43,2.17,2.17,0,0,1,0-2.46,6.8,6.8,0,0,1,1.57-1.36,134.09,134.09,0,0,1,17-9.26,196.19,196.19,0,0,1,37-12.13q13.53-3.12,27.1-6.09C124.07,69.79,126.72,69.41,128.67,69.06Z"/><path class="cls-2" d="M20.43,30.9c.23-.83.43-1.67.68-2.5A125.9,125.9,0,0,0,24.4,12.67c.51-3,1.8-4.48,4.78-5,2.81-.49,5.65-.86,8.49-1.15s4.06,1,3.52,3.73a104.79,104.79,0,0,1-2.8,11.37C35,32.17,32.44,43,29.77,53.69c-2.53,10.18-4.93,20.39-7.4,30.59a13.54,13.54,0,0,1-.68,2.16,4.31,4.31,0,0,1-3.45,2.63c-2.41.39-4.82.8-7.24,1.17a5.39,5.39,0,0,1-3.71-.39,3.13,3.13,0,0,1-1.78-2.76,18.47,18.47,0,0,1,.14-3.49C6.55,77.72,7.5,71.85,8.44,66c.65-4,1.39-8.05,1.92-12.09a38.72,38.72,0,0,0,.22-6.28c-.19-6.22-.18-6.24-2.25-12.46-2-6-4.11-12-6.16-18-.49-1.44-1-2.87-1.39-4.33-.7-2.62.14-4.28,2.75-4.92a66.77,66.77,0,0,1,6.89-1.11,2.79,2.79,0,0,1,3,1.91,16.5,16.5,0,0,1,.68,2Q17,20.46,19.89,30.28c.06.22.14.43.22.64Z"/><path class="cls-2" d="M54.18,53.33l-4.27,1a1.36,1.36,0,0,0-1,1.28c-.22,1.32-.52,2.64-.65,4-.38,4.12-.68,8.25-1,12.37-.23,2.81-1.27,4.15-4,4.77s-5.37,1.05-8.07,1.52a8.4,8.4,0,0,1-1.74.06c-1.68-.07-2.16-.6-2.36-2.33A10.77,10.77,0,0,1,31.33,72q5.13-20.81,10.18-41.62c.67-2.71,1.4-5.42,2.06-8.13a3.65,3.65,0,0,1,2.68-2.85c2.54-.85,5-2,7.44-3.05.59-.24,1.14-.58,1.73-.83,2.16-.92,3.55-.43,4.52,1.77a22.2,22.2,0,0,1,1.36,4.13C62.51,27,63.53,32.52,64.83,38a213,213,0,0,0,6,21.91c.27.77.39,1.59.61,2.37.69,2.38-.59,3.76-2.06,4.73A18.84,18.84,0,0,1,67,68.21L61,71a10.07,10.07,0,0,1-1,.44,2.79,2.79,0,0,1-3.89-1.6,13.23,13.23,0,0,1-.94-3.71c-.36-3.65-.59-7.31-.88-11C54.32,54.67,54.26,54.16,54.18,53.33Z"/><path class="cls-2" d="M89.9,44.28a2.25,2.25,0,0,0-2.36,2.42c-.07,3.55-.1,7.1-.05,10.65,0,2.21.24,4.42.39,6.62a3.64,3.64,0,0,1-2.13,3.87,44.13,44.13,0,0,1-4.84,2,5.48,5.48,0,0,1-2.25.15c-1.65-.2-2.24-1-2.47-2.61-1.41-9.62-.67-19.3-.88-28.95q-.19-8.47-.37-16.95c0-.81,0-1.62,0-2.43a5,5,0,0,1,3.35-4.85c1.76-.77,3.6-1.34,5.41-2s3.64-1.24,5.46-1.86c.44-.14.89-.28,1.34-.39,2.8-.66,4.3,0,5.41,2.72a59.32,59.32,0,0,1,2.4,6.74c2.79,10.22,5.5,20.47,8.21,30.72.43,1.62.7,3.3,1,5a4.51,4.51,0,0,1-1.79,4.48,21.86,21.86,0,0,1-8.57,4.19c-2.43.62-4-.23-4.76-2.61A22.52,22.52,0,0,1,91.57,57c-.49-3.69-.91-7.4-1.37-11.1C90.13,45.39,90,44.84,89.9,44.28Z"/><path class="cls-2" d="M125.05,16.61c-.09,1,.66,1.57,1.29,2.14,1.55,1.41,3.15,2.76,4.72,4.15a24.2,24.2,0,0,1,8,14.93,21.41,21.41,0,0,1-4,16.53c-3.92,5.37-9.66,6.86-15.84,5a12.56,12.56,0,0,1-6.33-5c-3.1-4.24-3.91-9.13-4-14.22a1.68,1.68,0,0,1,1.26-1.85c2.05-.65,4.08-1.37,6.15-2,1.34-.39,1.7-.06,2.15,1.26a11.49,11.49,0,0,0,4.9,6c1.36.88,2.26.29,2.16-1.33A12.87,12.87,0,0,0,123.64,37,72.27,72.27,0,0,0,115.7,25.7c-1.24-1.54-2.31-3.21-3.44-4.84a10.59,10.59,0,0,1-1.39-8.56,15,15,0,0,1,5.8-9.3,11.8,11.8,0,0,1,12.56-1.19,19.81,19.81,0,0,1,9.34,8.63c1,1.83.89,2.32-.6,3.83-1.63,1.66-3.26,3.34-4.93,5-1.08,1.05-1.29,1-2.43-.06-.89-.83-1.81-1.64-2.7-2.48S126.43,15.71,125.05,16.61Z"/><path class="cls-2" d="M124,64.37c3.65,0,4.95,1.58,4.25,4.39-.35,1.4-.77,2.8-1.26,4.17a5.35,5.35,0,0,1-4.61,3.72c-7.33,1-14.68,2-21.95,3.3A300.8,300.8,0,0,0,68,87.75c-8.42,2.53-16.81,5.17-25.21,7.77-.78.25-1.51.63-2.27.91a3.82,3.82,0,0,1-1.49.4,4.23,4.23,0,0,0-2.49.57A2,2,0,0,1,34.14,97a2.17,2.17,0,0,1,0-2.45,6.85,6.85,0,0,1,1.57-1.37,132.11,132.11,0,0,1,17-9.25A196.09,196.09,0,0,1,89.66,71.76c9-2.09,18.06-4.1,27.1-6.09C119.38,65.09,122,64.71,124,64.37Z"/></g></g></svg>