<svg xmlns="http://www.w3.org/2000/svg" viewBox="0 0 187.49 104.65"><defs><style>.cls-1{fill:#3e2a93;}.cls-2{fill:#f8b0c8;}.cls-3{fill:#f8451d;}.cls-4{fill:#fff;}.cls-5{fill:#75e1d1;}</style></defs><title>symbol-06</title><g id="Layer_2" data-name="Layer 2"><g id="Objects"><g id="_Group_" data-name="&lt;Group&gt;"><path id="_Path_" data-name="&lt;Path&gt;" class="cls-1" d="M182.74,53.21c-2.25-6.79-3.23-13.84-4.89-20.78-1.43-6-3-12.9-5.59-18.49C168,4.77,157,1.35,147.57,3.49c-5.9,1.35-11.95,4.85-18.17,3.9C124,6.56,119.79,1.93,114,3.26c-4.88,1.12-8.71,6.77-14.07,5.66-3.06-.64-5.44-3.2-8.33-4.28a17,17,0,0,0-8-.71c-6.52.79-12.77,2.4-19.4,2.52A76,76,0,0,1,42.85,3.78C32.79,1,20.69-2.74,10.94,3,2.15,8.22-.56,18,.09,27.6.54,34.15,1.15,40.46,1,47.06.81,52.76.77,58.58,2.88,64c1.85,4.76,5.17,9,10,10.92,5.18,2.07,10.86.91,16.16,2.27,12.94,3.31,5.87,22.88,18.61,27.42a1.4,1.4,0,0,0,1.65-1.78c-3.14-7.14,2.91-15.16,10.63-14.27,5.67.66,9.12,5.88,13.44,9,8,5.9,20.07,5.45,28.88,1.46,7.19-3.26,13-8.16,21-4.12,5.78,2.92,10.76,4.61,17.38,3.75S153.32,95,159,91.78s12.74-2.8,18.64-6c4.73-2.53,7.53-7,9.13-12C189.09,66.57,185.19,59.84,182.74,53.21Z"/><g id="_Group_2" data-name="&lt;Group&gt;"><path id="_Path_2" data-name="&lt;Path&gt;" class="cls-2" d="M13.45,28.28c-1.36,5.14,1.54,8,5.47,9.3-3.82,2.92-6.54,6.84-5.72,12.23,1.39,9.1,11.85,9.89,19.07,9.21l.1,0c-.07-1.87-.15-3.75-.22-5.63a.41.41,0,0,1-.11,0c-4.23.4-13.07,1.26-13.34-5.13-.21-5.23,5.69-8,9.87-9.73a25.88,25.88,0,0,1,.13-5.9h-.22l-.75.14h0a17.42,17.42,0,0,1-4.17.42c-4.24-.3-5.28-4-1.87-6.16A19,19,0,0,1,31,24.24a23.91,23.91,0,0,1,.2-5.67C24.86,18.85,15.25,21.45,13.45,28.28Z"/><path id="_Path_3" data-name="&lt;Path&gt;" class="cls-3" d="M68.42,49.5A44,44,0,0,0,69.5,36.27c-.29-4.57-.61-10.11-4.5-13.21-5.91-4.7-11.94-1.49-16.49,3.11l-.08-3A2.7,2.7,0,0,0,48.15,22L42.79,23.8l.69,25.93,5.65-.23-.39-14.73c1.66-2.58,3.55-5.6,6.31-7.12,4.35-2.39,7.74.11,8.41,4.67a41.59,41.59,0,0,1-.88,17.11A42.15,42.15,0,0,1,68.42,49.5Z"/><path id="_Compound_Path_" data-name="&lt;Compound Path&gt;" class="cls-2" d="M157.86,51.8c.33-7-.27-14.2-.36-21.26A37.45,37.45,0,0,0,157.92,20h0l-5.64.23h0v.06c-.31,3.5-.41,7-.39,10.48-.84,3.29-2.71,5.78-6.6,5.11-7.34-1.26-6.58-11.66-6.21-17l-5.65.22c-.58,8.64,1,22.41,12.59,22.53A10.53,10.53,0,0,0,152.06,40c.06,2.71.11,5.42.09,8.14,0,.92,0,2-.06,3.07a30.37,30.37,0,0,0-10.43,1.66c-5,1.75-9.92,5-12,10-1.84,4.48-1.24,10,2.6,13.28,8.88,7.53,19.8-1,23-9.79a44.2,44.2,0,0,0,2.13-8.92,27.35,27.35,0,0,1,10.56,4.93,54.44,54.44,0,0,1,2.86-4.9A32.87,32.87,0,0,0,157.86,51.8ZM141.8,73c-5,1-9.07-3.08-6.91-8.12,1.74-4,6.45-6.22,10.45-7.27a24.69,24.69,0,0,1,6.37-.82C150.91,64,148.6,71.62,141.8,73Z"/><path id="_Compound_Path_2" data-name="&lt;Compound Path&gt;" class="cls-4" d="M123.22,22.62a2.59,2.59,0,0,0-.46-.3.69.69,0,0,0-.13-.11,14.7,14.7,0,0,0-10.52-2.13,3.07,3.07,0,0,0-1.14.11C97.21,24,96.32,42.91,110.13,47.58,125.12,52.65,134.71,32.23,123.22,22.62ZM110.86,41.8c-4.28-2-5.71-5.67-4.85-10.13.63-3.25,3.32-5.08,6.38-6l.2,0a9.41,9.41,0,0,1,7,1.31C126.66,33.22,120.42,46.29,110.86,41.8Z"/><path id="_Compound_Path_3" data-name="&lt;Compound Path&gt;" class="cls-5" d="M88.69,19.32l-7,.51c-1.11,1.77-4,7.39-5.07,9.16,1.56,1.05,3.09,1.15,4.65,2.2.44-.7,2.65-4.3,3.09-5,.22,1.14.41,2.27.62,3.41l.3.2-.3-.2c1.3,7.15,2.34,14.34,3.06,21.58.1,1,.19,2.08.28,3.12-7.22,1-13.87,3.91-17.67,10.83-4.91,8.93-.73,21.76,10.55,22.33C92.67,88,95,75.28,94.76,66.45c-.07-2.33-.19-4.67-.34-7a68.36,68.36,0,0,1,7.81.55c0-1.88.1-3.76.14-5.64A71.49,71.49,0,0,0,94,53.9,283.92,283.92,0,0,0,88.69,19.32Zm-.92,58.12c-1.82,4-6,5.59-9.9,3.21-4.46-2.74-4.52-8.68-2.24-12.87,2.74-5,7.69-7.2,13.11-8,.13,2,.25,4,.33,6C89.23,69.59,89.39,73.87,87.77,77.44Z"/></g></g></g></g></svg>