<svg xmlns="http://www.w3.org/2000/svg" viewBox="0 0 169.91 157.95"><defs><style>.cls-1{fill:#f09fb4;}.cls-2{fill:#2b3590;}.cls-3{fill:#fff;stroke:#2b3590;stroke-miterlimit:10;}</style></defs><title>symbol-17</title><g id="Layer_2" data-name="Layer 2"><g id="OBJECTS"><path class="cls-1" d="M130.31,133l32.61-75.29c-.4-.06-.61-.11-.81-.13-2.69-.14-5.38-.26-8.07-.41-7.2-.38-14.39-.79-21.59-1.17l-15-.76c-2-.11-2.37-.46-2.62-2.51q-.73-6.16-1.41-12.33-1.48-13.39-3-26.79a5.44,5.44,0,0,0-.31-.94l-.39-.2a2.8,2.8,0,0,1-.38.73c-3,3-6,6-9.15,8.86-3.94,3.58-8,7-12,10.48-3.55,3-7.13,6.05-10.7,9.07a7.29,7.29,0,0,1-4.13,1.67,3.18,3.18,0,0,1-2-.4,12.71,12.71,0,0,1-2.83-2.59c-3.54-4.68-7-9.43-10.47-14.14-1.1-1.5-2.23-3-3.44-4.58-1.14,1.67-2.18,3.17-3.2,4.67-2.79,4.08-5.52,8.2-8.4,12.22a29.93,29.93,0,0,1-4,4.6q-6.28,5.77-12.74,11.36c-4.32,3.73-8.72,7.34-13.09,11-.32.26-.61.56-1,1,.44.22.75.4,1.08.55L25,72.21c2.85,1.27,5.66,2.65,8.57,3.73a2.73,2.73,0,0,1,1.82,3.68A21.71,21.71,0,0,1,33.87,83c-1,1.73-2.09,3.39-3.14,5.08-2.94,4.76-5.93,9.48-8.79,14.28-3.1,5.22-6.08,10.52-9.1,15.79a7.2,7.2,0,0,0-.39,1.07c1.71,0,3.27-.06,4.83,0A1.66,1.66,0,0,0,19,118.15c1-2.06,2.12-4.12,3.23-6.14.35-.63.53-1.93,1.55-1.37s0,1.44-.33,2.07c-.88,1.79-1.87,3.51-2.8,5.27a10.38,10.38,0,0,0-.43,1.15c1.3,0,2.42.06,3.53,0a1.57,1.57,0,0,0,1-.7c.53-.8,1-1.67,1.45-2.51.76-1.3,1.52-2.61,2.29-3.9.26-.44.62-.81,1.18-.44s.22.75,0,1.12c-.64,1.06-1.29,2.12-1.91,3.19s-1.11,1.93-1.76,3.07h5.43c1-1.76,2-3.44,3-5.11a7.32,7.32,0,0,1,1-1.43c.16-.17.56-.11.85-.16,0,.29.18.64.07.86-.42.8-.94,1.56-1.39,2.35-.64,1.1-1.25,2.21-2,3.5,1.51,0,2.74,0,4,0a1.65,1.65,0,0,0,1.61-.82c.79-1.21,1.61-2.41,2.42-3.62a4.51,4.51,0,0,1,.62-.94,2.9,2.9,0,0,1,.92-.36c.06.32.25.68.16,1a7.49,7.49,0,0,1-.82,1.38c-.66,1-1.34,2-2.18,3.31.8,0,1.32,0,1.83,0,1.62,0,3.24,0,4.85-.11a2.8,2.8,0,0,1,2.79,1.5c1.06,1.62,2.19,3.18,3.37,4.9.26-.45.45-.75.62-1.07.41-.76.76-1.55,1.23-2.27.15-.22.61-.24.92-.36a3.28,3.28,0,0,1,.14,1,3.33,3.33,0,0,1-.45.85l-1.63,3.08,2.88,4.07c.36-.68.6-1.14.83-1.6.54-1,1-2.12,1.61-3.16.24-.44.65-.82,1.18-.44s.16.73,0,1.13c-.93,1.76-1.82,3.53-2.76,5.35l2.3,3.3c1.39-1,1.53-2.85,3-3.79.17.32.38.56.33.66-.77,1.44-1.58,2.86-2.44,4.39l3.58,5.16c.41-.7.71-1.2,1-1.71.57-1,1.11-2.08,1.7-3.11.25-.45.49-1.15,1.17-.78s.15.94-.07,1.37c-1,1.8-1.94,3.59-2.94,5.45,1,1.38,1.82,2.82,2.94,4.15,1.13-1.63,1.47-3.45,2.64-4.81.87.61.92.63.58,1.38-.72,1.62-1.5,3.21-2.29,4.88l1.17,1.7a8.67,8.67,0,0,0,.4-.89c.65-2.21,1.2-4.45,1.93-6.63q2.55-7.57,5.24-15.08a51.49,51.49,0,0,1,2.21-5.19,3,3,0,0,1,4.15-1.6,11.67,11.67,0,0,0,1.37.47l13,3.4,26.66,7.07Z"/><path class="cls-2" d="M69.49,33.91c2.52-2.13,5-4.21,7.43-6.3l26.4-22.54c1.68-1.44,3.35-2.87,5-4.32a2,2,0,0,1,2.19-.62,2.06,2.06,0,0,1,1.18,2q1.32,11.79,2.64,23.58,1.25,10.89,2.54,21.79c0,.26.1.51.16.84.36,0,.67.08,1,.1l26.29,1.28c5,.24,10,.41,15,.68,3,.17,6,.47,9,.74,1.27.12,1.55.44,1.6,1.77a11.51,11.51,0,0,1-1.18,5c-3,6.74-6,13.45-8.95,20.18-2.14,4.82-4.24,9.65-6.36,14.47-2.29,5.21-4.62,10.41-6.87,15.64-3.17,7.35-6.26,14.74-9.41,22.11a7.21,7.21,0,0,1-2.86,3.8,3.57,3.57,0,0,1-2.78.44l-9.19-2.38q-8-2.1-16.07-4.2l-18.09-4.76c-1.45-.38-2.91-.73-4.51-1.13-.19.56-.39,1-.53,1.54L76,149.36c-.58,2.13-1.14,4.26-1.74,6.38a4.36,4.36,0,0,1-.64,1.46,2,2,0,0,1-3.31-.24c-1-1.32-2-2.7-2.91-4.07q-8.75-12.69-17.47-25.4c-1.59-2.3-3.23-4.57-4.77-6.9a2,2,0,0,0-1.86-1q-11.44.06-22.9.09-9,0-17.89.1a2.3,2.3,0,0,1-2-.68,2,2,0,0,1,0-2.54c1.08-1.73,2.23-3.43,3.36-5.13Q11,100.7,18.12,89.94q4.64-7,9.3-14c.23-.35.43-.72.7-1.19-2.45-1.16-4.81-2.29-7.19-3.38L4.36,63.79c-.49-.22-1-.45-1.45-.71-1.31-.75-1.46-1.82-.33-2.86C4,58.9,5.47,57.64,6.93,56.36c7.58-6.61,15.14-13.25,22.77-19.81,3-2.59,5.31-5.75,7.73-8.82,4-5,7.83-10.13,11.74-15.2.16-.21.31-.44.49-.64,1.05-1.24,2.06-1.26,3.06,0,1.27,1.61,2.48,3.26,3.71,4.89Q62.57,24.91,68.7,33C68.92,33.31,69.19,33.57,69.49,33.91ZM129,129.67c10.92-25.21,21.74-50.2,32.61-75.28-.41-.06-.61-.12-.82-.13l-8.06-.41-21.6-1.17c-5-.27-10-.5-15-.77-2-.1-2.36-.45-2.61-2.5-.5-4.11-1-8.22-1.42-12.33-1-8.93-2-17.86-3-26.79a4.67,4.67,0,0,0-.3-.94l-.4-.21a2.85,2.85,0,0,1-.37.74c-3,3-6,6-9.15,8.86-3.94,3.58-8,7-12.05,10.47-3.55,3-7.14,6-10.7,9.08A7.23,7.23,0,0,1,72,40a3.17,3.17,0,0,1-2-.39A13.24,13.24,0,0,1,67.2,37c-3.54-4.68-7-9.43-10.46-14.15-1.1-1.49-2.23-3-3.44-4.57-1.15,1.67-2.18,3.16-3.2,4.66-2.79,4.08-5.53,8.21-8.4,12.23a29.85,29.85,0,0,1-4,4.59Q31.38,45.52,24.92,51.1c-4.31,3.73-8.72,7.34-13.08,11-.32.27-.61.56-1,.95.44.23.75.41,1.08.56l11.78,5.27c2.85,1.26,5.65,2.65,8.57,3.73a2.73,2.73,0,0,1,1.82,3.68,20.86,20.86,0,0,1-1.53,3.37c-1,1.73-2.09,3.38-3.13,5.08-2.94,4.75-5.93,9.48-8.79,14.28-3.1,5.22-6.08,10.52-9.1,15.79a7,7,0,0,0-.39,1.06c1.71,0,3.27-.05,4.82,0a1.66,1.66,0,0,0,1.76-1.07c1-2.07,2.11-4.12,3.23-6.15.35-.62.53-1.93,1.54-1.36s0,1.43-.32,2.07c-.88,1.78-1.87,3.51-2.81,5.27a9.89,9.89,0,0,0-.42,1.15c1.29,0,2.42,0,3.53,0a1.55,1.55,0,0,0,1-.69c.53-.81,1-1.68,1.45-2.51.76-1.31,1.51-2.61,2.29-3.9.26-.44.62-.82,1.17-.44s.23.75,0,1.12c-.63,1.06-1.28,2.11-1.91,3.18s-1.1,1.93-1.75,3.08h5.43c1-1.76,2-3.44,2.95-5.11a8.19,8.19,0,0,1,1-1.44c.16-.17.57-.11.86-.15,0,.29.17.64.06.85-.42.81-.93,1.57-1.39,2.36-.63,1.1-1.25,2.21-2,3.5,1.51,0,2.74,0,4,0a1.68,1.68,0,0,0,1.62-.82c.79-1.22,1.61-2.42,2.42-3.63a4,4,0,0,1,.62-.93,2.91,2.91,0,0,1,.92-.37c.06.32.25.69.15.95a7.2,7.2,0,0,1-.81,1.39c-.66,1-1.34,2-2.18,3.31h1.83c1.62,0,3.23,0,4.84-.12a2.84,2.84,0,0,1,2.8,1.5c1.05,1.62,2.18,3.19,3.37,4.91.26-.45.45-.76.62-1.07.41-.76.76-1.55,1.23-2.27.15-.22.61-.25.92-.36a3.61,3.61,0,0,1,.14,1,3.33,3.33,0,0,1-.45.85L52,123l2.87,4.07c.36-.68.61-1.13.84-1.59.53-1,1-2.13,1.6-3.16.24-.44.65-.83,1.19-.45s.16.74,0,1.13c-.92,1.76-1.82,3.53-2.75,5.36L58,131.7c1.4-1,1.54-2.85,3-3.79.16.31.38.56.33.66-.78,1.44-1.59,2.86-2.44,4.38l3.58,5.17c.4-.7.7-1.2,1-1.71.57-1,1.12-2.09,1.7-3.12.26-.44.49-1.14,1.17-.77s.16.93-.07,1.36c-1,1.81-1.93,3.6-2.94,5.46,1,1.37,1.83,2.82,2.95,4.15,1.13-1.63,1.47-3.45,2.63-4.82.87.62.92.64.59,1.39-.73,1.62-1.51,3.21-2.3,4.88l1.18,1.7a8.67,8.67,0,0,0,.4-.89c.64-2.21,1.2-4.46,1.93-6.64q2.53-7.56,5.24-15.08a52.32,52.32,0,0,1,2.21-5.18,3,3,0,0,1,4.15-1.6,13,13,0,0,0,1.37.47l12.94,3.4,26.67,7.07C125.08,128.68,127,129.15,129,129.67Z"/><path class="cls-2" d="M140.37,35.75c-1.11.91-17.23,7-18.9,7.08a12.9,12.9,0,0,1,0-1.52c.32-3.15.67-6.3,1-9.45s.71-6.4,1.09-9.6c.06-.5.21-1,.36-1.65a4.72,4.72,0,0,1,1.16.58c1.13,1.19,2.64,2,3.48,3.5.21.38.87.5,1.24.84q5,4.66,10,9.38A6.58,6.58,0,0,1,140.37,35.75Zm-1.69-.25c-4.76-4.07-9.05-8.39-13.88-12.5L124,29.39c-.24,2-.54,4-.69,5.93a50.07,50.07,0,0,0-.59,6.1Z"/><path class="cls-2" d="M2.24,73.21l16,3.43a5.46,5.46,0,0,1-.78.92q-7.34,5.11-14.7,10.18a9.41,9.41,0,0,1-1.07.56c-.15-.35-.37-.63-.36-.89.21-4.51.45-9,.69-13.51A3,3,0,0,1,2.24,73.21ZM16.11,77.4,16,77C11.75,76,7.53,75,3,74.19,3,75.71,2.9,77,2.83,78.36s-.2,2.79-.21,4.18-.4,2.61-.07,4.13Z"/><path class="cls-2" d="M87.07,128.83q3.57,3,7.13,6c.94.8,1.89,1.6,2.81,2.43,1.14,1,1.16,1.82.06,2.82-1.79,1.61-3.59,3.21-5.42,4.78a3.88,3.88,0,0,1-1.12.46c-.11-.33-.26-.65-.34-1-.74-3-1.47-6.06-2.21-9.09-.41-1.68-.82-3.35-1.21-5a7.87,7.87,0,0,1-.12-1.19Zm9.81,9.84c-3-2.65-5.84-5.13-8.67-7.6l-.26.17c1,4.09,1.92,8.18,2.94,12.58Z"/><path class="cls-2" d="M24.28,19.41c1.32,2.07,5.79,12.45,5.91,13.83-4.81-1.47-9.34-3.41-14.12-5,.54-1.54,1.78-2.23,2.62-3.22s1.76-1.88,2.67-2.78A19.75,19.75,0,0,1,24.28,19.41Zm0,1.41c-2.28,2.39-4.45,4.46-6.57,6.87L29.15,32C27.48,28.12,26,24.6,24.32,20.82Z"/><path class="cls-2" d="M132.14,103.56a2.6,2.6,0,0,1-2.46,2.67,2.51,2.51,0,0,1-2.53-2.56,2.46,2.46,0,0,1,2.35-2.56A2.49,2.49,0,0,1,132.14,103.56Z"/><path class="cls-3" d="M102.82,58.68c1,0,2,0,3,0a3.37,3.37,0,0,1,3,2.53c.18.6.31,1.21.53,2.06,1-1.68,2.61-2.1,4.19-2.44a150,150,0,0,1,17.53-2.63A2.45,2.45,0,0,1,134,60.47a2.4,2.4,0,0,1-2.24,2.5l-6.94,1.42a5.48,5.48,0,0,0-.69.25,16.4,16.4,0,0,1,.36,6q-.48,8.44-1.18,16.89c-.32,3.9-.79,7.8-1.21,11.7a3,3,0,0,1-2.16,2.74,2.5,2.5,0,0,1-2.79-1.14,3.56,3.56,0,0,1-.5-1.82c.08-3.28.2-6.56.41-9.83s.48-6.44.83-9.65c.34-3,.82-6.06,1.25-9.09.23-1.65.48-3.29.75-5.09-2.08.3-4.14.58-6.18.9-1.4.22-2.77.38-3.9-.55.12,7.06.28,14.09.35,21.11,0,4,0,8-.12,11.93a32.07,32.07,0,0,1-.27,3.53c-.23,1.87-1.47,3-3.07,2.82a3,3,0,0,1-2.67-3.27c-.07-4.09-.2-8.17-.31-12.25a5.42,5.42,0,0,0-.18-.74l-7.73.87c-1.37,3-2.61,5.75-3.94,8.5a27.88,27.88,0,0,1-2.07,3.45,2.5,2.5,0,0,1-3.14.93,2.53,2.53,0,0,1-1.49-2.76,6.83,6.83,0,0,1,.53-1.68q3.49-8.4,7-16.8c1.42-3.36,2.82-6.74,4.39-10C99,67.48,101,63.75,102.85,60,103,59.57,102.84,59,102.82,58.68Zm.6,24.94V71.79A68,68,0,0,0,97.84,84Z"/><path class="cls-3" d="M51.48,79.43c-.32.47-.65.93-.95,1.41-1.65,2.65-3.25,5.32-5,7.93a15.23,15.23,0,0,1-2.43,2.77,3.48,3.48,0,0,1-3.91.65,3.41,3.41,0,0,1-2.16-3.48,77.82,77.82,0,0,1,.86-9.3c1.3-7,2.83-14,4.32-21,.44-2,1.07-4,1.64-6.06a4.41,4.41,0,0,1,.5-1.18,2.3,2.3,0,0,1,2.36-1.08,2,2,0,0,1,1.77,1.64,5.76,5.76,0,0,1,0,2.07c-.69,3.64-1.48,7.27-2.17,10.91-.85,4.49-1.63,9-2.43,13.49a7.51,7.51,0,0,0,0,1c.64-1,1.09-1.6,1.51-2.26,1.36-2.12,2.68-4.28,4.1-6.37a8.78,8.78,0,0,1,1.88-2A3.52,3.52,0,0,1,57.06,70a8.2,8.2,0,0,1,.66,2.48c.19,1.92.26,3.86.39,5.79a3.15,3.15,0,0,0,.47,1.59c.43-1.22.86-2.45,1.3-3.67,1.3-3.64,2.51-7.32,3.93-10.92s3-7.13,4.58-10.66a8.17,8.17,0,0,1,1.39-2.15,2.83,2.83,0,0,1,3.8-.51,3,3,0,0,1,1,3.6q-2.69,7.33-5.32,14.69C67,76.43,64.83,82.67,62.6,88.89a42,42,0,0,1-2,4.74A8,8,0,0,1,58.75,96a3.53,3.53,0,0,1-5.82-1.66,17.82,17.82,0,0,1-.59-4.13c-.19-3.12-.29-6.23-.43-9.35,0-.46-.1-.91-.15-1.37Z"/><path class="cls-3" d="M79.12,74.8,85,74c.62-1.78,1.18-3.51,1.81-5.21q3-8,6-16c.39-1,.9-2,2.21-2a2.26,2.26,0,0,1,2.48,2.51A11.1,11.1,0,0,1,97,56c-1.65,5.17-3.36,10.32-5,15.48q-1.94,6-3.77,12c-.86,2.82-1.63,5.68-2.46,8.51a4.42,4.42,0,0,1-.65,1.28,2.38,2.38,0,0,1-3.24.88,3,3,0,0,1-1.24-3.34c1.12-3.7,2-7.45,3.12-11.41a38.68,38.68,0,0,0-6.37,1c-.92,3-1.86,5.86-2.74,8.79-.74,2.46-1.39,5-2.13,7.43a5.29,5.29,0,0,1-.84,1.72,2.2,2.2,0,0,1-2.58.83,2.49,2.49,0,0,1-1.87-2.19A6.32,6.32,0,0,1,67.39,95c1.77-7.2,3.63-14.38,6.09-21.39C75.31,68.37,77,63.11,78.8,57.87a9.31,9.31,0,0,1,.61-1.49,2.4,2.4,0,0,1,2.91-1.11,2.29,2.29,0,0,1,1.48,2.58q-.94,4.15-2.07,8.27C81,68.91,80.07,71.66,79.12,74.8Z"/><path class="cls-3" d="M143.3,66.38a25.56,25.56,0,0,0-3,1,13.26,13.26,0,0,0-4.75,3.78,7.58,7.58,0,0,0-1,2c-.49,1.28-1.18,1.87-2.33,1.83a2.81,2.81,0,0,1-2.7-2.15,5.58,5.58,0,0,1,.92-4.46,16.8,16.8,0,0,1,10.3-7.5,8.27,8.27,0,0,1,4.6.24,5.4,5.4,0,0,1,3.82,4.41,14.76,14.76,0,0,1,.1,5,18.64,18.64,0,0,1-7.32,12.28c-.91.67-1.83,1.32-2.75,2a7.42,7.42,0,0,0-2.9,4.13c-.58,2-1.27,3.87-2,5.79a2.73,2.73,0,0,1-3,1.91,2.64,2.64,0,0,1-2.4-2.62,28.18,28.18,0,0,1,.58-5.58,13.61,13.61,0,0,1,6.38-8.93,15.75,15.75,0,0,0,4.95-4.31c1.44-2.17,2.7-4.41,2.65-7.13C143.46,67.56,143.39,67.15,143.3,66.38Z"/><path class="cls-3" d="M49.84,100.63c.35.07.77.15,1.19.25,7.86,2,15.86,3.37,23.86,4.75,5.4.92,10.76,2,16.14,3,3.91.73,7.82,1.44,11.72,2.18,1.27.24,2.53.52,3.78.82a3.26,3.26,0,0,1,1,.45,2.64,2.64,0,0,1,1.13,3.09,2.43,2.43,0,0,1-2.85,1.57c-2.65-.41-5.3-.88-8-1.3-3.24-.51-6.49-1-9.72-1.51-2.91-.49-5.81-1.07-8.7-1.65-6.17-1.24-12.33-2.46-18.48-3.78-3.57-.77-7.1-1.71-10.63-2.64a6.76,6.76,0,0,1-2.28-1.13,2.19,2.19,0,0,1-.59-2.63A2.46,2.46,0,0,1,49.84,100.63Z"/></g></g></svg>