<svg xmlns="http://www.w3.org/2000/svg" viewBox="0 0 144.17 110.51"><defs><style>.cls-1{fill:#fff;}.cls-2{fill:#f8451d;}.cls-3{fill:#75e1d1;}.cls-4{fill:#f8b0c8;}</style></defs><title>symbol-4</title><g id="Layer_2" data-name="Layer 2"><g id="Objects"><g id="_Group_" data-name="&lt;Group&gt;"><path id="_Path_" data-name="&lt;Path&gt;" class="cls-1" d="M140.57,14.81A15,15,0,0,0,134.69,11a97.64,97.64,0,0,0-11.82-4c-3.35-.93-6.9-1.57-10.36-.86-2,.4-3.75,1.37-5.68,1.93-2.57.74-4.74.06-7.07-1-3.06-1.45-5.91-3.23-9.34-3.6s-6.83.59-10,1.8-6.48,2.84-9.92,3.63C65.7,10,61.74,8.2,57.37,6.46c-3.18-1.28-6.58-2.34-10-1.78-3.75.6-7.16,5.31-11,3.55C31.13,5.8,29.35-2.24,22.29.6A46.38,46.38,0,0,0,16.8,3.79c-3.38,2-6.66,4.26-8.93,7.52a14.19,14.19,0,0,0-2.75,9.08c.31,4,2.65,7.22,4.23,10.75,3,6.73-.53,12.48-4,18.21C2,54.88-1.22,60.87.45,67.53c2,7.78,9.52,13.5,15.67,18s13.11,6.39,20.61,3.69a10.84,10.84,0,0,1,4-.86c3.32.18,5.08,3,6.14,5.87,1.58,4.69,2.49,9.39,1,14.23-.59,2,2.31,2.9,3.27,1.23C60.51,93.3,80.7,94.92,96.86,95.21c7.6.13,16.06-.53,22.3-5.38,4.81-3.74,6-9.63,8.62-14.83a206.14,206.14,0,0,0,8.44-19.2c2.62-6.89,5.35-13.95,7-21.15C144.66,28.38,145,20.11,140.57,14.81Z"/><g id="_Group_2" data-name="&lt;Group&gt;"><g id="_Group_3" data-name="&lt;Group&gt;"><path id="_Path_2" data-name="&lt;Path&gt;" class="cls-2" d="M50.87,16.28,42.16,35a267.52,267.52,0,0,0-16-22.73c-2.7,1.83-5.44,3.59-8.21,5.31L30,46.48,18.33,71.42,30.59,77.3c10.21-20.15,21.82-37.59,32-57.73A118.75,118.75,0,0,1,50.87,16.28Z"/><path id="_Path_3" data-name="&lt;Path&gt;" class="cls-3" d="M118.47,20.21a198,198,0,0,1-7.13,20.41c-6.22-7.8-9.84-12.5-15.63-20.63-1.95,1.5-5.26,3.86-7.12,5.47,4.84,6.31,10.93,14.83,17.06,24.21L98.91,75.85l10.53,2.29a459.65,459.65,0,0,1,22.31-55.39C127,21.9,123.19,21.06,118.47,20.21Z"/><g id="_Group_4" data-name="&lt;Group&gt;"><path id="_Compound_Path_" data-name="&lt;Compound Path&gt;" class="cls-4" d="M88.29,56c-2.05-6.31-4.39-15.59-7-21.68q-11.16,1.35-22.4,2c-1.26,13-2.84,29.06-4.72,42l10.75-.41.78-17L73,59.32q1.92,8.61,4.26,17.13a90.22,90.22,0,0,1,14.9-7.06Q90.44,62.64,88.29,56ZM72.16,53.52l-6.44,1,1-8.89,4.58-.4Z"/></g></g><g id="_Group_5" data-name="&lt;Group&gt;"><path id="_Path_4" data-name="&lt;Path&gt;" class="cls-1" d="M24.59,69.21l1.63.72Q39.15,48.15,53,27l-1.58-.8q-6,9.13-11.78,18.37C36,38.23,31.89,32.17,28.17,25.88c-.5.32-1,.65-1.46,1,3.85,6.52,8.12,12.79,11.91,19.34"/><path id="_Path_5" data-name="&lt;Path&gt;" class="cls-1" d="M112.72,49.69C107.3,42.25,102,34.74,96.56,27.29l-1.59.8c5.67,7.81,11.25,15.68,16.93,23.47a.85.85,0,0,0,.19.19q-3.32,10.72-6.61,21.45l1.73.34L120,32.06l-1.64-.65Q115.53,40.56,112.72,49.69Z"/><path id="_Compound_Path_2" data-name="&lt;Compound Path&gt;" class="cls-2" d="M76,40.89a.88.88,0,0,0-.87-.61l-11.67,1a.88.88,0,0,0-.82.68c-1.37,10.5-2.75,21-4,31.52l1.78-.1q.81-7,1.71-14.08a.66.66,0,0,0,.28,0l17.11-2.92c1.44,3.95,2.87,7.91,4.18,11.91.51-.31,1-.61,1.56-.89C82.36,58.53,78.82,49.84,76,40.89ZM62.38,57.58q.93-7.29,1.88-14.57l10.27-.91c1.37,4.25,2.88,8.45,4.41,12.65Z"/></g></g></g></g></g></svg>